<svg id="anger" xmlns="http://www.w3.org/2000/svg" width="36.228" height="36.926" viewBox="0 0 36.228 36.926">
  <g id="Сгруппировать_75" data-name="Сгруппировать 75" transform="translate(3.579 0)">
    <g id="Сгруппировать_74" data-name="Сгруппировать 74" transform="translate(0 0)">
      <circle id="Эллипс_25" data-name="Эллипс 25" cx="3.167" cy="3.167" r="3.167" fill="#ffc700"/>
    </g>
  </g>
  <g id="Сгруппировать_77" data-name="Сгруппировать 77" transform="translate(19.82 0.355)">
    <g id="Сгруппировать_76" data-name="Сгруппировать 76">
      <path id="Контур_506" data-name="Контур 506" d="M286.3,7.647a3.352,3.352,0,1,0-2.671,3.917A3.352,3.352,0,0,0,286.3,7.647Z" transform="translate(-279.649 -4.917)" fill="#ffc700"/>
    </g>
  </g>
  <g id="Сгруппировать_79" data-name="Сгруппировать 79" transform="translate(0 5.387)">
    <g id="Сгруппировать_78" data-name="Сгруппировать 78" transform="translate(0)">
      <path id="Контур_507" data-name="Контур 507" d="M38.3,87.5l2.646-6.087a1.516,1.516,0,0,0-.461-1.8l-5.934-4.606a1.516,1.516,0,0,0-1.893.028,3.984,3.984,0,0,1-2.041,2.474l-5.154,2.608-4.57-2.591a1.536,1.536,0,0,0-1.891.32,13.888,13.888,0,0,1-1.516-.334c-.876-.239-1.715-.533-2.287-.747a2.138,2.138,0,0,0-1.512-.293s-2.134.393-3.775.7a2.246,2.246,0,0,0-1.53,1.075c-1.368,2.338-3.329,5.68-3.329,5.68a1.432,1.432,0,0,0,.2,1.746L9.634,90.15a1.424,1.424,0,0,0,.582.36l.292,5.341-2.135,8.206a1.722,1.722,0,0,0,3.332.867l2.2-8.466a1.724,1.724,0,0,0,.053-.527l-.335-6.126,1.071-.192,2.185,6.52,1.054,8.568a1.722,1.722,0,1,0,3.418-.42l-1.075-8.74A1.729,1.729,0,0,0,20.2,95.2L18.077,88.86l-.116-.648-3.2-.5A2.737,2.737,0,0,1,12.549,85.8l-1.163-5.75L13.9,85.529a1.435,1.435,0,0,0,1.081.819l5.662.893h0a1.435,1.435,0,0,0,.447-2.835l-4.9-.773-2.275-4.96,3,3.667L16.8,81.75a1.844,1.844,0,0,1,.605-1.716l0,0a4.409,4.409,0,0,1,1.282-.733,1.507,1.507,0,0,0,.7.868l5.278,2.993h0a1.524,1.524,0,0,0,1.434.033l5.691-2.88-2.674,2.248.734,4.72-2.443,7.291a1.822,1.822,0,0,0-.091.692l.574,9.252a1.822,1.822,0,1,0,3.638-.226l-.552-8.9,2.126-6.345,1-.226-.356,6.52a1.82,1.82,0,0,0,.056.558l2.331,8.961a1.822,1.822,0,0,0,3.528-.918l-2.26-8.687.39-7.139A1.511,1.511,0,0,0,38.3,87.5ZM8.076,84.46,8.841,83.2l.447,2.5Zm28.846-1.4-.565-2.813,1.337,1.038Z" transform="translate(-4.842 -74.687)" fill="#ffc700"/>
    </g>
  </g>
</svg>
