<svg id="coin" xmlns="http://www.w3.org/2000/svg" width="41.404" height="41.404" viewBox="0 0 41.404 41.404">
  <path id="Контур_499" data-name="Контур 499" d="M185.379,198.9h1.38v-.725a1.725,1.725,0,0,0-.345-3.416h-.69a.345.345,0,0,1,0-.69h2.415v-1.38h-1.38V192h-1.38v.725a1.725,1.725,0,0,0,.345,3.416h.69a.345.345,0,0,1,0,.69H184v1.38h1.38Z" transform="translate(-169.507 -176.818)" fill="#21d59b"/>
  <path id="Контур_500" data-name="Контур 500" d="M192.69,360a.69.69,0,0,0-.69.69v10.351a.69.69,0,0,0,.69.69h9.661a.69.69,0,0,0,.69-.69V360.69a.69.69,0,0,0-.69-.69Zm.69,4.83h8.281v2.07H193.38Zm0-3.45h8.281v2.07H193.38Zm8.281,8.971H193.38v-2.07h8.281Z" transform="translate(-176.818 -330.327)" fill="#21d59b"/>
  <path id="Контур_501" data-name="Контур 501" d="M16.69,284.83h1.38v2.07a.69.69,0,0,0-.69.69v3.45a.69.69,0,0,0,.69.69h.69v6.211a.69.69,0,0,0,.69.69h9.661a.69.69,0,0,0,.69-.69v-6.9a.69.69,0,0,0-.69-.69h-.69v-2.07a.69.69,0,0,0,.69-.69v-3.45a.69.69,0,0,0-.69-.69h-1.38v-2.76a.69.69,0,0,0-.69-.69H16.69a.69.69,0,0,0-.69.69v3.45a.69.69,0,0,0,.69.69Zm11.731,6.9v2.07H20.14v-2.07Zm0,5.521H20.14v-2.07h8.281Zm-1.38-6.9H18.76v-2.07h8.281Zm.69-3.45H19.45v-2.07h8.281ZM17.38,281.38h8.281v2.07H17.38Z" transform="translate(-16 -257.228)" fill="#21d59b"/>
  <path id="Контур_502" data-name="Контур 502" d="M349.111,280H339.45a.69.69,0,0,0-.69.69v2.76h-2.07a.69.69,0,0,0-.69.69v3.45a.69.69,0,0,0,.69.69h.69v2.07h-.69a.69.69,0,0,0-.69.69v6.9a.69.69,0,0,0,.69.69h9.661a.69.69,0,0,0,.69-.69v-6.211h.69a.69.69,0,0,0,.69-.69v-3.45a.69.69,0,0,0-.69-.69h-.69v-2.07h2.07a.69.69,0,0,0,.69-.69v-3.45A.69.69,0,0,0,349.111,280Zm-3.45,17.252H337.38v-2.07h8.281Zm0-3.45H337.38v-2.07h8.281Zm1.38-3.45H338.76v-2.07h8.281Zm-1.38-3.45H337.38v-2.07h8.281Zm2.76-3.45H340.14v-2.07h8.281Z" transform="translate(-308.397 -257.228)" fill="#21d59b"/>
  <path id="Контур_503" data-name="Контур 503" d="M139.45,40.193v1.339a2.76,2.76,0,0,0,5.365.912,2.759,2.759,0,0,0,4.3-2.292v-.371a2.758,2.758,0,0,0,4.105-1.95,2.414,2.414,0,0,0,3.486-2.164V16.69a.69.69,0,0,0-.69-.69H143.591a.69.69,0,0,0-.69.69v3.962l-3.363,6.054a.69.69,0,0,0-.087.335v2.029a6.207,6.207,0,0,0,0,11.123Zm2.76,2.72a1.382,1.382,0,0,1-1.38-1.38v-.847a6.2,6.2,0,0,0,1.38.156,6.274,6.274,0,0,0,1.38-.153v.843A1.382,1.382,0,0,1,142.211,42.913Zm4.14-1.38a1.381,1.381,0,0,1-1.378-1.334,6.18,6.18,0,0,0,2.758-2.72v2.674A1.382,1.382,0,0,1,146.351,41.533Zm-2.07-24.152h11.041v2.76H144.281Zm-3.45,9.84,3.166-5.7h11.325V35.667a1.035,1.035,0,1,1-2.07,0V32.562h-1.38v4.83a1.38,1.38,0,0,1-2.76,0v-.371a2.761,2.761,0,0,0,1.38-2.389v-3.8l.828-.621a4.853,4.853,0,0,0,1.932-3.864v-2.07h-1.38v2.07a3.467,3.467,0,0,1-1.38,2.76l-1.1.828a.69.69,0,0,0-.276.552v4.14a1.38,1.38,0,1,1-2.76,0V25.661h-1.38v3.408a6.19,6.19,0,0,0-4.14-.492Zm1.38,2.581a4.772,4.772,0,0,1,2.76.867v3.964a2.762,2.762,0,0,0,1.425,2.415,4.831,4.831,0,1,1-4.185-7.245Z" transform="translate(-125.649 -16)" fill="#21d59b"/>
</svg>
