<svg id="empowerment" xmlns="http://www.w3.org/2000/svg" width="41.71" height="41.404" viewBox="0 0 41.71 41.404">
  <path id="Контур_478" data-name="Контур 478" d="M148.478,384.773a.61.61,0,0,0-.915.808l1.971,2.232v6.412a.61.61,0,0,0,1.22,0v-6.643a.61.61,0,0,0-.153-.4Z" transform="translate(-135.417 -353.431)" fill="#f0142f"/>
  <path id="Контур_479" data-name="Контур 479" d="M75.765,219.064a6.36,6.36,0,0,1-.963-6.985l.824-1.71a.61.61,0,0,0-1.1-.53l-.824,1.71a7.578,7.578,0,0,0,1.147,8.323l2.55,2.888a.61.61,0,0,0,.915-.808Z" transform="translate(-67.012 -192.602)" fill="#f0142f"/>
  <path id="Контур_480" data-name="Контур 480" d="M126.775,95.852a2.912,2.912,0,0,0-2.024.817,2.918,2.918,0,0,0-4.657-.743,2.919,2.919,0,0,0-4.62-.69,2.922,2.922,0,0,0-5.5,1.382v2.558a4.143,4.143,0,0,0-3.611,1.829.61.61,0,0,0,1.011.683,2.931,2.931,0,0,1,3.826-.942l7.323,3.931a1.168,1.168,0,0,1,0,2.057l-.961.516a4.783,4.783,0,0,1-4.393.068l-2.22-1.107a.61.61,0,0,0-.545,1.092l2.22,1.107a6,6,0,0,0,5.515-.085l.073-.039,1.217,1.465a3.744,3.744,0,0,1,.863,2.388v3.514a.61.61,0,1,0,1.22,0V112.14a4.968,4.968,0,0,0-1.144-3.168l-1.067-1.285a2.381,2.381,0,0,0,.825-3,2.914,2.914,0,0,0,4.1-.058,2.919,2.919,0,0,0,3.845,1.19v1.455a.61.61,0,1,0,1.22,0v-2.589a2.9,2.9,0,0,0,.406-1.484V98.775A2.926,2.926,0,0,0,126.775,95.852ZM111.2,99.413V96.619a1.7,1.7,0,1,1,3.4,0v4.567l-2.821-1.514A4.243,4.243,0,0,0,111.2,99.413Zm4.625,2.428V97.317a1.7,1.7,0,1,1,3.4,0v5.258a1.7,1.7,0,0,1-.285.941Zm6.328,2.437a1.7,1.7,0,0,1-1.7-1.7V98a1.7,1.7,0,0,1,3.4,0v4.575A1.7,1.7,0,0,1,122.15,104.278Zm4.625.625a1.7,1.7,0,0,1-1.7-1.7V98.775a1.7,1.7,0,0,1,3.4,0V103.2A1.7,1.7,0,0,1,126.775,104.9Z" transform="translate(-97.616 -86.226)" fill="#f0142f"/>
  <path id="Контур_481" data-name="Контур 481" d="M354.185,285.042a.61.61,0,0,0-.61.61v5.53a5.164,5.164,0,0,1-.707,2.607l-.925,1.58a1.507,1.507,0,0,0-.206.761V302.8a.61.61,0,1,0,1.22,0V296.13a.286.286,0,0,1,.039-.144l.925-1.58a6.385,6.385,0,0,0,.874-3.224v-5.53A.61.61,0,0,0,354.185,285.042Z" transform="translate(-323.119 -262.004)" fill="#f0142f"/>
  <path id="Контур_482" data-name="Контур 482" d="M337.217,7.732a.61.61,0,0,0,.843-.183L341.1,2.822a.61.61,0,1,0-1.026-.66l-3.042,4.728A.61.61,0,0,0,337.217,7.732Z" transform="translate(-309.524 -1.881)" fill="#f0142f"/>
  <path id="Контур_483" data-name="Контур 483" d="M414.757,14.4a.61.61,0,0,0,.857-.1l6.764-8.623a.61.61,0,1,0-.96-.753l-6.764,8.623A.61.61,0,0,0,414.757,14.4Z" transform="translate(-380.798 -4.46)" fill="#f0142f"/>
  <path id="Контур_484" data-name="Контур 484" d="M467.329,198.079l-2.714,1.509a.61.61,0,1,0,.593,1.067l2.714-1.509a.61.61,0,1,0-.593-1.067Z" transform="translate(-426.526 -182.045)" fill="#f0142f"/>
  <path id="Контур_485" data-name="Контур 485" d="M467.858,318.467l-2.632-1.588a.61.61,0,1,0-.63,1.045l2.632,1.588a.61.61,0,1,0,.63-1.045Z" transform="translate(-426.525 -291.171)" fill="#f0142f"/>
  <path id="Контур_486" data-name="Контур 486" d="M406.26,384.489a.61.61,0,0,0-.928.793l.978,1.145a.61.61,0,1,0,.928-.793Z" transform="translate(-372.22 -353.164)" fill="#f0142f"/>
  <path id="Контур_487" data-name="Контур 487" d="M439.681,423.6a.61.61,0,1,0-.928.793l3.406,3.987a.61.61,0,1,0,.928-.793Z" transform="translate(-402.922 -389.096)" fill="#f0142f"/>
  <path id="Контур_488" data-name="Контур 488" d="M277.918,17.441a.61.61,0,0,0,.771-.387l.674-2.026a.61.61,0,0,0-1.158-.385l-.674,2.026A.61.61,0,0,0,277.918,17.441Z" transform="translate(-254.923 -13.221)" fill="#f0142f"/>
  <path id="Контур_489" data-name="Контур 489" d="M126.472,7.549a.61.61,0,1,0,1.026-.66l-3.042-4.728a.61.61,0,1,0-1.026.66Z" transform="translate(-113.298 -1.881)" fill="#f0142f"/>
  <path id="Контур_490" data-name="Контур 490" d="M7.06,13.382a.61.61,0,1,0,.955-.76l-6.927-8.7a.61.61,0,1,0-.955.76Z" transform="translate(0 -3.541)" fill="#f0142f"/>
  <path id="Контур_491" data-name="Контур 491" d="M3.2,200.662a.61.61,0,0,0,.567-1.081L.894,198.072a.61.61,0,1,0-.567,1.081Z" transform="translate(0 -182.046)" fill="#f0142f"/>
  <path id="Контур_492" data-name="Контур 492" d="M6.779,317.087a.61.61,0,0,0-.838-.207l-2.632,1.588a.61.61,0,1,0,.631,1.045l2.632-1.588A.61.61,0,0,0,6.779,317.087Z" transform="translate(-2.769 -291.171)" fill="#f0142f"/>
  <path id="Контур_493" data-name="Контур 493" d="M84.441,384.421a.61.61,0,0,0-.86.068l-.978,1.145a.61.61,0,1,0,.928.793l.978-1.145A.61.61,0,0,0,84.441,384.421Z" transform="translate(-75.748 -353.163)" fill="#f0142f"/>
  <path id="Контур_494" data-name="Контур 494" d="M23.6,423.536a.61.61,0,0,0-.86.068l-3.406,3.987a.61.61,0,1,0,.928.793l3.406-3.987A.61.61,0,0,0,23.6,423.536Z" transform="translate(-17.629 -389.096)" fill="#f0142f"/>
  <path id="Контур_495" data-name="Контур 495" d="M212.586,17.054a.61.61,0,0,0,1.158-.385l-.674-2.026a.61.61,0,0,0-1.158.385Z" transform="translate(-194.642 -13.221)" fill="#f0142f"/>
</svg>
