<svg id="illness" xmlns="http://www.w3.org/2000/svg" width="38.163" height="41.404" viewBox="0 0 38.163 41.404">
  <g id="Сгруппировать_69" data-name="Сгруппировать 69" transform="translate(0)">
    <g id="Сгруппировать_68" data-name="Сгруппировать 68">
      <path id="Контур_496" data-name="Контур 496" d="M53.088,5.114a17.461,17.461,0,0,0-29.807,12.2L20.1,23.671a.608.608,0,0,0,.231.793l2.946,1.768v9.379a.608.608,0,0,0,.608.608h5.874V40.8a.608.608,0,1,0,1.215,0V35.611A.608.608,0,0,0,30.371,35H24.5V25.888a.608.608,0,0,0-.3-.521l-2.759-1.655,2.989-5.979a.607.607,0,0,0,.064-.272A16.246,16.246,0,1,1,50.739,30.267a.608.608,0,0,0-.233.479V40.8a.608.608,0,1,0,1.215,0V31.039A17.461,17.461,0,0,0,53.088,5.114Z" transform="translate(-20.04)" fill="#f99600"/>
    </g>
  </g>
  <g id="Сгруппировать_71" data-name="Сгруппировать 71" transform="translate(6.482 4.537)">
    <g id="Сгруппировать_70" data-name="Сгруппировать 70">
      <path id="Контур_497" data-name="Контур 497" d="M127.988,69.034a4.478,4.478,0,0,0-1.68-3.5l-.011-.01c-.055-.044-.11-.086-.167-.126l-.006,0a4.45,4.45,0,0,0,.568-2.188A4.5,4.5,0,0,0,120,59.271,4.5,4.5,0,0,0,111.98,58.1a5.794,5.794,0,0,0-8.5,4.416,5.793,5.793,0,1,0,5.7,10.056l2.7.284a.608.608,0,1,0,.127-1.209l-1.6-.168a5.8,5.8,0,0,0,.651-.936.608.608,0,1,0-1.063-.59,4.629,4.629,0,0,1-1.317,1.487l-.016.01a4.578,4.578,0,1,1-5.182-7.545,5.78,5.78,0,0,0,.732,2.19.608.608,0,1,0,1.052-.609,4.575,4.575,0,0,1-.612-2.289c0-.042,0-.2.006-.241a4.577,4.577,0,0,1,7.188-3.514.614.614,0,0,0,.9-.238,3.281,3.281,0,0,1,6.206.881,4.494,4.494,0,0,0-.5,5.6.608.608,0,1,0,1.012-.673,3.282,3.282,0,1,1,5.59-.2,4.506,4.506,0,0,0-1.558-.28.608.608,0,1,0,0,1.215,3.282,3.282,0,1,1-3.282,3.282.608.608,0,1,0-1.215,0,4.5,4.5,0,0,0,2.623,4.087l1.18,4.72-1.015.677-2.933-5.866a.608.608,0,0,0-.48-.333l-3.5-.369a.608.608,0,1,0-.127,1.209l3.171.334L121,79.676a.614.614,0,0,0,.881.234l1.945-1.3a.608.608,0,0,0,.252-.653L122.965,73.5a4.5,4.5,0,0,0,5.023-4.466Z" transform="translate(-100.196 -56.11)" fill="#f99600"/>
    </g>
  </g>
  <g id="Сгруппировать_73" data-name="Сгруппировать 73" transform="translate(14.22 8.505)">
    <g id="Сгруппировать_72" data-name="Сгруппировать 72">
      <path id="Контур_498" data-name="Контур 498" d="M204.619,111.19l-1.571-1.571,1.538-1.538a.608.608,0,0,0,0-.859l-1.833-1.833a.608.608,0,0,0-.859,0l-1.538,1.538-1.571-1.571a.608.608,0,0,0-.859,0l-1.833,1.833a.608.608,0,0,0,0,.859l1.571,1.571-1.6,1.6a.608.608,0,0,0,0,.859l1.833,1.833a.614.614,0,0,0,.859,0l1.6-1.6,1.571,1.571a.614.614,0,0,0,.859,0l1.833-1.833A.608.608,0,0,0,204.619,111.19Zm-2.3-4.512.974.974-1.108,1.108-.974-.974Zm-4,5.948-.974-.974,1.173-1.173.974.974Zm4.033-.033-4.974-4.974.974-.974,4.974,4.974Z" transform="translate(-195.882 -105.178)" fill="#f99600"/>
    </g>
  </g>
</svg>
