<svg xmlns="http://www.w3.org/2000/svg" xmlns:xlink="http://www.w3.org/1999/xlink" width="101" height="101" viewBox="0 0 101 101">
  <defs>
    <filter id="Эллипс_2" x="0" y="0" width="101" height="101" filterUnits="userSpaceOnUse">
      <feOffset dx="2" dy="5" input="SourceAlpha"/>
      <feGaussianBlur stdDeviation="2" result="blur"/>
      <feFlood flood-opacity="0.161"/>
      <feComposite operator="in" in2="blur"/>
      <feComposite in="SourceGraphic"/>
    </filter>
  </defs>
  <g id="Сгруппировать_135" data-name="Сгруппировать 135" transform="translate(-156 -23)">
    <g id="physical-abuse" transform="translate(178.973 37)">
      <path id="Контур_66" data-name="Контур 66" d="M40.669,124.906l-2.5-15.48H7.048l-2.5,15.464,0,.016a15.342,15.342,0,0,0-.514,3.935h0a5.993,5.993,0,0,0,6.085,5.9H35.1a5.993,5.993,0,0,0,6.086-5.9h0A15.326,15.326,0,0,0,40.669,124.906Zm0,0" transform="translate(-3.491 -95.501)" fill="#4671c6"/>
      <path id="Контур_67" data-name="Контур 67" d="M31.606,131.756H6.622a6.509,6.509,0,0,1-6.594-6.406,15.832,15.832,0,0,1,.529-4.058l2.5-15.439a.508.508,0,0,1,.5-.427H34.673a.509.509,0,0,1,.5.427l2.5,15.456a15.856,15.856,0,0,1,.524,4.041A6.51,6.51,0,0,1,31.606,131.756ZM3.99,106.444,1.557,121.48c0,.017-.006.034-.01.05a14.857,14.857,0,0,0-.5,3.82,5.491,5.491,0,0,0,5.577,5.388H31.607a5.491,5.491,0,0,0,5.577-5.387,14.838,14.838,0,0,0-.5-3.8.42.42,0,0,1-.01-.05L34.24,106.444Zm0,0" transform="translate(0 -92.01)" fill="#3762cc"/>
      <path id="Контур_68" data-name="Контур 68" d="M40.579,56.331c-.029,0-.058,0-.086,0V55.041a13.7,13.7,0,0,0-27.4,0v1.294c-.029,0-.057,0-.086,0a4.18,4.18,0,0,0,0,8.361,4.307,4.307,0,0,0,.448-.025,13.7,13.7,0,0,0,26.679,0,4.18,4.18,0,1,0,.448-8.336Zm0,0" transform="translate(-7.677 -36.079)" fill="#f9cfcf"/>
      <path id="Контур_69" data-name="Контур 69" d="M148.6,201.857l-.026-.338-.04-2.35a1.084,1.084,0,0,0-1.237-1.055,1.111,1.111,0,0,0-.929,1.133l.044,2.587a.358.358,0,0,1-.714.048l-.618-5.253a1.084,1.084,0,0,0-1.337-.926,1.112,1.112,0,0,0-.811,1.22l.663,5.626a.363.363,0,0,1-.71.136l-1.7-6.356a1.084,1.084,0,0,0-1.456-.723,1.111,1.111,0,0,0-.626,1.324l1.694,6.323a.355.355,0,0,1-.67.232l-2.075-4.821a1.084,1.084,0,0,0-1.567-.493,1.106,1.106,0,0,0-.411,1.381l2.073,4.817.476,1.776a.2.2,0,0,1-.288.231l-1.681-.876a1.7,1.7,0,0,0-2.416.38.5.5,0,0,0,.119.685l1.18.879,2.539,2.232A13.709,13.709,0,0,0,148.6,201.857Zm0,0" transform="translate(-117.048 -170.645)" fill="#f9a7a7"/>
      <path id="Контур_70" data-name="Контур 70" d="M62.044,327.933c0-.052-.006-.1-.01-.154-.006-.1-.012-.2-.022-.3-.005-.061-.012-.122-.019-.182-.009-.086-.02-.173-.032-.259-.009-.066-.019-.131-.029-.2s-.027-.159-.041-.237-.026-.137-.04-.205-.032-.144-.048-.215-.033-.146-.052-.218-.032-.116-.048-.174a9.579,9.579,0,0,0-.308-.926l-.029-.077c-.04-.1-.083-.2-.126-.3l-.036-.083c-.045-.1-.092-.2-.14-.3l-.032-.066q-.078-.156-.162-.308l-.015-.027a9.673,9.673,0,0,0-8.072-5l-.024.03h.017l-1.136,2.994a1.858,1.858,0,0,1-1.737,1.2H43.091a1.858,1.858,0,0,1-1.737-1.2l-.987-2.6a1.436,1.436,0,0,1-.15-.394h0a9.663,9.663,0,0,0-6.759,3.676h0l-.018.023c-.052.067-.1.136-.154.2l-.093.128c-.048.068-.095.136-.142.2-.031.046-.062.092-.092.139-.045.068-.088.136-.13.206q-.045.074-.089.149c-.041.069-.081.137-.119.207-.029.052-.058.105-.086.159-.037.069-.074.138-.109.208s-.055.113-.082.17-.067.137-.1.206-.058.137-.087.205c-.046.109-.09.22-.132.331-.029.076-.058.152-.085.229-.021.061-.04.122-.061.184s-.049.148-.071.224-.036.125-.053.187-.042.151-.061.228-.03.126-.045.189c-.018.079-.035.157-.051.235-.013.063-.025.125-.036.188q-.022.122-.042.246c-.009.061-.019.122-.028.184-.012.086-.022.174-.031.261-.006.058-.013.116-.018.174-.009.1-.015.2-.021.294,0,.049-.007.1-.009.148-.006.148-.01.3-.01.447v1.936H62.056v-1.936C62.056,328.235,62.052,328.084,62.044,327.933Zm0,0" transform="translate(-27.382 -278.163)" fill="#6bdddd"/>
      <path id="Контур_71" data-name="Контур 71" d="M102.025,302.811H111.4l1.591-4.191h-.01a1.394,1.394,0,0,0,.046-.334v-2.633a13.7,13.7,0,0,1-12.628,0v2.641a1.4,1.4,0,0,0,.043.326h-.008Zm0,0" transform="translate(-87.598 -258.029)" fill="#f9cfcf"/>
      <g id="Сгруппировать_1" data-name="Сгруппировать 1" transform="translate(0.637 4.751)">
        <path id="Контур_72" data-name="Контур 72" d="M23.3,72.259A14.142,14.142,0,0,1,9.566,61.705H9.509a4.689,4.689,0,0,1-.423-9.359v-.8a14.21,14.21,0,0,1,28.42,0v.8a4.689,4.689,0,0,1-.423,9.359h-.057A14.141,14.141,0,0,1,23.3,72.259ZM9.958,60.662a.509.509,0,0,1,.5.394,13.191,13.191,0,0,0,25.687,0,.51.51,0,0,1,.55-.391,3.671,3.671,0,1,0,.4-7.32l-.077,0a.5.5,0,0,1-.368-.144.508.508,0,0,1-.154-.364V51.546a13.192,13.192,0,0,0-26.385,0v1.294a.509.509,0,0,1-.154.365.5.5,0,0,1-.368.144l-.062,0h0a3.671,3.671,0,1,0-.01,7.341,3.556,3.556,0,0,0,.395-.022Zm0,0" transform="translate(-4.82 -37.336)" fill="#3762cc"/>
        <path id="Контур_73" data-name="Контур 73" d="M58.561,307.208H27.907a.509.509,0,0,1-.509-.509v-1.936q0-.236.011-.47c0-.034,0-.069.006-.1l0-.052c.006-.1.013-.207.022-.31,0-.046.009-.091.014-.136l0-.047c.01-.092.021-.184.033-.275.009-.065.019-.13.029-.195.013-.085.027-.172.043-.258.012-.066.025-.132.038-.2.017-.084.035-.166.054-.248.015-.067.031-.133.047-.2s.043-.161.065-.24l.01-.039c.015-.053.03-.106.045-.159.022-.073.046-.145.07-.218l.022-.069c.015-.048.031-.1.047-.143.024-.068.05-.136.075-.2l.014-.037c.044-.117.09-.233.139-.348l.021-.049c.023-.056.047-.112.071-.167s.053-.114.08-.171l.04-.084c.022-.047.045-.095.069-.142.035-.07.072-.14.109-.209l.1-.177c.041-.073.083-.145.125-.217.031-.053.063-.106.095-.158.044-.072.09-.144.136-.215l.1-.147c.048-.072.1-.144.148-.215l.1-.134c.054-.074.108-.145.163-.216l.02-.025a10.226,10.226,0,0,1,6.616-3.812v-2.516a.508.508,0,0,1,.744-.451,13.189,13.189,0,0,0,12.157,0,.509.509,0,0,1,.744.451v2.462a10.253,10.253,0,0,1,7.979,5.224l.016.028c.059.107.115.215.17.324l.034.069c.051.1.1.208.148.313l.038.086c.046.1.091.208.133.314l.031.079a10.155,10.155,0,0,1,.325.976l.014.051c.012.044.025.088.036.132.017.065.032.13.047.194l.008.036c.018.075.035.151.051.227s.028.143.042.215.03.167.044.25.021.138.031.207c.012.091.024.181.034.272s.015.136.021.192c.009.1.016.206.023.31l0,.056c0,.035,0,.07.006.106.007.159.012.318.012.478V306.7A.509.509,0,0,1,58.561,307.208ZM28.416,306.19H58.052v-1.427c0-.145,0-.288-.011-.431l-.009-.146c-.005-.092-.012-.186-.02-.279,0-.05-.01-.1-.016-.147l0-.026c-.009-.083-.019-.165-.031-.246-.008-.062-.018-.123-.028-.185s-.025-.15-.039-.225-.025-.13-.038-.195-.03-.135-.046-.2l-.009-.037c-.013-.057-.026-.113-.04-.169-.009-.037-.02-.073-.03-.11l-.015-.055a9.07,9.07,0,0,0-.292-.877l-.026-.07c-.039-.1-.08-.19-.12-.283L57.244,301c-.043-.1-.087-.189-.133-.282l-.031-.063c-.049-.1-.1-.195-.153-.291l.431-.271-.445.246a9.223,9.223,0,0,0-7.576-4.73.489.489,0,0,1-.279-.045.5.5,0,0,1-.28-.568.851.851,0,0,0,.029-.2v-1.822a14.215,14.215,0,0,1-11.61,0V294.8a.885.885,0,0,0,.029.206.51.51,0,0,1-.477.628,9.193,9.193,0,0,0-6.385,3.481l-.015.019,0,.006c-.048.06-.1.126-.144.191l-.088.12c-.046.064-.09.129-.134.194l-.089.134c-.04.063-.082.127-.122.193-.029.048-.057.095-.085.142-.038.065-.077.131-.113.2-.025.045-.05.091-.074.138l-.013.024c-.033.062-.066.123-.1.185-.02.04-.039.081-.058.121l-.043.09c-.023.048-.047.1-.069.146s-.04.093-.06.141l-.022.053c-.044.1-.085.208-.126.314l-.014.039c-.022.059-.045.118-.066.177-.014.039-.027.079-.039.118l-.018.056c-.027.083-.048.147-.068.212-.013.046-.026.091-.039.138l-.011.04c-.02.072-.04.143-.058.216s-.029.119-.042.179-.033.149-.049.223c-.012.059-.023.118-.034.178-.014.077-.027.154-.039.232-.009.059-.018.116-.026.174-.011.082-.021.165-.03.249l-.018.165c-.008.092-.014.185-.02.278l-.009.14c-.006.141-.01.281-.01.424v1.427Zm0,0" transform="translate(-24.525 -259.29)" fill="#3762cc"/>
        <path id="Контур_74" data-name="Контур 74" d="M187.763,164.718a4.714,4.714,0,0,1-1.6-.292c-1.841-.67-2.908-2.226-2.429-3.543a.509.509,0,1,1,.956.347c-.274.755.559,1.78,1.821,2.239a3.378,3.378,0,0,0,1.888.158,1.288,1.288,0,0,0,.945-.7.509.509,0,0,1,.957.348,2.217,2.217,0,0,1-1.661,1.344A3.7,3.7,0,0,1,187.763,164.718Zm0,0" transform="translate(-160.867 -144.868)" fill="#3762cc"/>
        <path id="Контур_75" data-name="Контур 75" d="M129.035,235.454a.509.509,0,0,1-.509-.509c0-.8-1.134-1.481-2.477-1.481s-2.477.678-2.477,1.481a.509.509,0,0,1-1.018,0c0-1.4,1.535-2.5,3.495-2.5s3.495,1.1,3.495,2.5A.509.509,0,0,1,129.035,235.454Zm0,0" transform="translate(-107.572 -207.617)" fill="#3762cc"/>
      </g>
      <path id="Контур_76" data-name="Контур 76" d="M68.717,150.4a3.868,3.868,0,1,1-3.868-3.868A3.869,3.869,0,0,1,68.717,150.4Zm0,0" transform="translate(-53.197 -127.888)" fill="#a4c9ff"/>
      <path id="Контур_77" data-name="Контур 77" d="M58.6,194.055a1.46,1.46,0,0,0-.231.772,1.4,1.4,0,0,0,1.282,1.437,1.384,1.384,0,0,0,1.427-1.417,1.459,1.459,0,0,0-.231-.792h0l-1.01-1.595a.132.132,0,0,0-.226,0l-1.01,1.594h0Zm0,0" transform="translate(-50.918 -167.913)" fill="#e0ebfc"/>
      <path id="Контур_78" data-name="Контур 78" d="M31.064,21.867h-15.5a.376.376,0,0,1-.376-.375V17.185A13.186,13.186,0,0,1,28.373,4h2.691a8.574,8.574,0,0,1,8.574,8.574v.72A8.574,8.574,0,0,1,31.064,21.867Zm0,0" transform="translate(-13.231 -3.491)" fill="#4671c6"/>
      <path id="Контур_79" data-name="Контур 79" d="M200.294,40.714h-2.906a8.708,8.708,0,0,1-8.708-8.709V23.563h1.485a10.852,10.852,0,0,1,10.852,10.853V39.99A.723.723,0,0,1,200.294,40.714Zm0,0" transform="translate(-164.645 -20.564)" fill="#4671c6"/>
      <path id="Контур_80" data-name="Контур 80" d="M45.388,20.659H42.483a9.211,9.211,0,0,1-8.111-4.836,9.124,9.124,0,0,1-6.8,3.063h-15.5A.886.886,0,0,1,11.188,18V13.694A13.71,13.71,0,0,1,24.882,0h2.691a9,9,0,0,1,6.244,2.489H35.26A11.374,11.374,0,0,1,46.621,13.851v5.575A1.234,1.234,0,0,1,45.388,20.659ZM34.481,14.371a.462.462,0,0,1,.058,0,.509.509,0,0,1,.41.3,8.194,8.194,0,0,0,7.534,4.961h2.906a.215.215,0,0,0,.215-.215V13.851A10.355,10.355,0,0,0,35.26,3.507H34.152a.509.509,0,0,1-.745.009,7.994,7.994,0,0,0-5.833-2.5H24.882A12.691,12.691,0,0,0,12.206,13.694v4.173H27.573a8.1,8.1,0,0,0,6.5-3.289A.509.509,0,0,1,34.481,14.371Zm0,0" transform="translate(-9.74)" fill="#3762cc"/>
      <path id="Контур_81" data-name="Контур 81" d="M260.051,212.907c-.565-.188-1.124-.388-1.19-.412h0a12.863,12.863,0,0,1-2.8-1.8h0a10.379,10.379,0,0,1-3.488-5.613h0c-.186-.481-.642-.187-.642-.187a7.7,7.7,0,0,1-.994.794,10.358,10.358,0,0,1-13.006-.911v0a.508.508,0,0,0-.781.341h0a10.377,10.377,0,0,1-7.911,7.822h0a.553.553,0,0,0-.073.85h0a10.357,10.357,0,0,1,.748,13h0a7.191,7.191,0,0,1-.811.992h0a.587.587,0,0,0,.265.8l0,0a9.874,9.874,0,0,1,7.665,7.229h0a.6.6,0,0,0,.822.336c.039-.035.079-.07.119-.1l0-.007.067-.053c.159-.135.32-.265.465-.366h0c.344-.26.578-.4.578-.4h0a.57.57,0,0,1,.819.228l2.189,4.418h4.992l2.264-4.457a.588.588,0,0,1,.836-.233,10.382,10.382,0,0,1,1.03.743l0,0s1.122.717,1.561-.435a10.388,10.388,0,0,1,6.592-6.724v0c1.214-.495.4-1.782.4-1.782a10.367,10.367,0,0,1,.594-12.88A.742.742,0,0,0,260.051,212.907Zm0,0" transform="translate(-199.83 -178.659)" fill="#ffea92"/>
      <path id="Контур_82" data-name="Контур 82" d="M67.581,164.722a3.732,3.732,0,0,1-.879-.1,2.218,2.218,0,0,1-1.661-1.344.509.509,0,1,1,.956-.348,1.289,1.289,0,0,0,.945.7,3.372,3.372,0,0,0,1.888-.158c1.262-.46,2.1-1.485,1.821-2.239a.509.509,0,0,1,.956-.348c.479,1.317-.588,2.874-2.429,3.544A4.71,4.71,0,0,1,67.581,164.722Zm0,0" transform="translate(-56.714 -140.12)" fill="#3762cc"/>
      <path id="Контур_83" data-name="Контур 83" d="M262.458,244.277a1.9,1.9,0,0,0-2.035,1.459l-1.072,4.291a.613.613,0,0,1-1.2-.237l1.3-8.946a1.853,1.853,0,0,0-1.8-2.12,1.9,1.9,0,0,0-1.879,1.655l-1.4,9.582a.619.619,0,0,1-1.232-.089V238.624a1.853,1.853,0,0,0-2.085-1.838,1.9,1.9,0,0,0-1.621,1.909v11.19a.607.607,0,0,1-1.207.087l-1.293-8.879a1.853,1.853,0,0,0-2.369-1.507,1.89,1.89,0,0,0-1.288,2.1l1.292,8.871V253.7a.344.344,0,0,1-.577.254l-2.387-2.191a2.909,2.909,0,0,0-4.158-.441.854.854,0,0,0-.107,1.183l1.559,1.974,6.588,9.891c.029.043.057.087.086.13l.009.014h0a5.647,5.647,0,0,0,1.6,1.527l-.114,2.33h11.119l-.107-2.168a5.6,5.6,0,0,0,2.848-4.333h0l2.124-11.4.974-3.9A1.854,1.854,0,0,0,262.458,244.277Zm0,0" transform="translate(-206.955 -206.642)" fill="#f9cfcf"/>
      <path id="Контур_84" data-name="Контур 84" d="M254.717,265.392H243.6a.509.509,0,0,1-.508-.534l.1-2.042a6.133,6.133,0,0,1-1.477-1.473l-.024-.033c-.03-.044-.055-.082-.08-.121l-.018-.027-6.575-9.871-1.546-1.958a1.37,1.37,0,0,1,.181-1.89,3.418,3.418,0,0,1,4.857.484l2.082,1.912v-2.731l-1.286-8.834a2.4,2.4,0,0,1,1.648-2.66,2.362,2.362,0,0,1,3.017,1.922l1.293,8.879a.1.1,0,0,0,.195-.014v-11.19a2.4,2.4,0,0,1,2.068-2.414,2.363,2.363,0,0,1,2.655,2.344v11.248a.11.11,0,0,0,.22.016l1.4-9.582a2.362,2.362,0,0,1,4.151-1.253,2.363,2.363,0,0,1,.533,1.864l-1.3,8.946a.1.1,0,0,0,.1.119.1.1,0,0,0,.1-.079l1.072-4.292a2.4,2.4,0,0,1,2.592-1.84,2.362,2.362,0,0,1,2.008,2.917l-.971,3.883-2.119,11.375A6.116,6.116,0,0,1,255.134,263l.092,1.862a.51.51,0,0,1-.509.534Zm-10.584-1.018h10.049l-.08-1.634a.507.507,0,0,1,.26-.469,5.1,5.1,0,0,0,2.59-3.94.52.52,0,0,1,.012-.07l2.119-11.374c0-.01,0-.02.006-.03l.974-3.9a1.344,1.344,0,0,0-1.146-1.661,1.4,1.4,0,0,0-1.478,1.077l-1.072,4.291a1.122,1.122,0,0,1-2.2-.433l1.3-8.946a1.344,1.344,0,0,0-1.306-1.538,1.389,1.389,0,0,0-1.363,1.219l-1.4,9.582a1.128,1.128,0,0,1-2.245-.163V235.141a1.345,1.345,0,0,0-1.514-1.333,1.4,1.4,0,0,0-1.173,1.4V246.4a1.116,1.116,0,0,1-2.22.161l-1.293-8.879a1.344,1.344,0,0,0-1.721-1.092,1.38,1.38,0,0,0-.93,1.537L241.6,247a.512.512,0,0,1,.005.073v3.142a.853.853,0,0,1-1.431.628l-2.387-2.191a.522.522,0,0,1-.055-.06,2.4,2.4,0,0,0-3.433-.366.345.345,0,0,0-.033.477l1.559,1.974.024.033,6.609,9.922c.019.028.037.057.057.085l.012.016a5.113,5.113,0,0,0,1.456,1.389.509.509,0,0,1,.236.455Zm13.326-5.993h0Zm0,0" transform="translate(-203.478 -203.157)" fill="#3762cc"/>
    </g>
    <g transform="matrix(1, 0, 0, 1, 156, 23)" filter="url(#Эллипс_2)">
      <g id="Эллипс_2-2" data-name="Эллипс 2" transform="translate(4 1)" fill="none" stroke="#322a7d" stroke-width="1" stroke-dasharray="8">
        <circle cx="44.5" cy="44.5" r="44.5" stroke="none"/>
        <circle cx="44.5" cy="44.5" r="44" fill="none"/>
      </g>
    </g>
  </g>
</svg>
