<svg id="sexual" xmlns="http://www.w3.org/2000/svg" width="28.42" height="37.895" viewBox="0 0 28.42 37.895">
  <path id="Контур_471" data-name="Контур 471" d="M59.36,352v2.707H56.653a.677.677,0,0,0,0,1.353H59.36v3.383a.677.677,0,0,0,1.353,0V356.06H63.42a.677.677,0,0,0,0-1.353H60.713V352Zm0,0" transform="translate(-51.241 -322.225)" fill="#21d59b"/>
  <path id="Контур_472" data-name="Контур 472" d="M8.787,146.327A8.792,8.792,0,0,0,9.795,128.8a6,6,0,0,0-.3,1.322,7.444,7.444,0,1,1-4.088.776c0-.046-.007-.09-.007-.135a10.279,10.279,0,0,1,.106-1.4,8.8,8.8,0,0,0,3.277,16.96Zm0,0" transform="translate(0.009 -117.906)" fill="#21d59b"/>
  <path id="Контур_473" data-name="Контур 473" d="M117.854,165.878a6.1,6.1,0,0,0-5.319-5.319A6.1,6.1,0,0,0,117.854,165.878Zm0,0" transform="translate(-103.015 -146.977)" fill="#21d59b"/>
  <path id="Контур_474" data-name="Контур 474" d="M88.629,49.093a7.444,7.444,0,0,1,3.377,14.075c0,.046.007.09.007.135a10.167,10.167,0,0,1-.106,1.384,8.8,8.8,0,1,0-4.286.579,6,6,0,0,0,.3-1.322,7.444,7.444,0,0,1,.711-14.851Zm0,0" transform="translate(-73.066 -43.679)" fill="#21d59b"/>
  <path id="Контур_475" data-name="Контур 475" d="M34.722,171.07a6.09,6.09,0,1,0,8.391,8.406A10.128,10.128,0,0,1,34.722,171.07Zm0,0" transform="translate(-29.174 -156.6)" fill="#21d59b"/>
  <path id="Контур_476" data-name="Контур 476" d="M255.977.677a.677.677,0,0,0,.677.677H258.8a.677.677,0,0,1,.478,1.155l-2.66,2.659.958.957,2.659-2.658a.677.677,0,0,1,1.155.478V6.09a.677.677,0,1,0,1.353,0V.677A.677.677,0,0,0,262.067,0h-5.414A.677.677,0,0,0,255.977.677Zm0,0" transform="translate(-234.323)" fill="#21d59b"/>
  <path id="Контур_477" data-name="Контур 477" d="M131.561,91.177a6.084,6.084,0,1,0-8.385-8.391A10.186,10.186,0,0,1,131.561,91.177Zm0,0" transform="translate(-112.756 -73.177)" fill="#21d59b"/>
</svg>
