<svg id="stop-violence-2" xmlns="http://www.w3.org/2000/svg" width="47.262" height="47.262" viewBox="0 0 47.262 47.262">
  <path id="Контур_504" data-name="Контур 504" d="M40.341,6.921A23.632,23.632,0,0,0,7.96,5.943a.692.692,0,1,0,.919,1.036,22.246,22.246,0,1,1-1.9,1.9A.692.692,0,0,0,5.943,7.96a23.631,23.631,0,1,0,34.4-1.039Z" transform="translate(0)" fill="#0058ff"/>
  <path id="Контур_505" data-name="Контур 505" d="M39.167,40.15a.692.692,0,0,0-.977.067A20.545,20.545,0,0,0,37.517,66.4a1.461,1.461,0,0,0,1.061.556l.087,0a1.458,1.458,0,0,0,1.03-.427l2.7-2.7a9.866,9.866,0,0,0,.847,1.52l-2.364,2.364a1.458,1.458,0,0,0,.132,2.178A20.364,20.364,0,0,0,53.705,74.28,20.6,20.6,0,0,0,74.278,53.707a20.364,20.364,0,0,0-4.384-12.695,1.458,1.458,0,0,0-2.178-.132l-3.36,3.36a2.914,2.914,0,0,0-2.016-.351L66.532,39.7a1.458,1.458,0,0,0-.132-2.178,20.545,20.545,0,0,0-26.185.673.692.692,0,1,0,.909,1.044,19.161,19.161,0,0,1,24.421-.628.073.073,0,0,1,.029.055.068.068,0,0,1-.021.055l-4.274,4.274v-.754a2.984,2.984,0,0,0-4.725-2.425,2.986,2.986,0,0,0-5.835.9v.54a2.984,2.984,0,0,0-4.588,2.518V48.9a2.938,2.938,0,0,0-3.668.383,3.079,3.079,0,0,0-.92,2.183v8.359a9.847,9.847,0,0,0,.339,2.564l-3.166,3.166a.07.07,0,0,1-.055.021.073.073,0,0,1-.055-.029,19.161,19.161,0,0,1,.628-24.42A.692.692,0,0,0,39.167,40.15ZM68.7,41.86a.068.068,0,0,1,.055-.021.073.073,0,0,1,.055.029,18.993,18.993,0,0,1,4.088,11.84A19.21,19.21,0,0,1,53.706,72.9a18.993,18.993,0,0,1-11.84-4.088.073.073,0,0,1-.029-.055.068.068,0,0,1,.021-.055l2.247-2.247a9.845,9.845,0,0,0,7.307,3.243H56a9.879,9.879,0,0,0,9.868-9.868V46.878a3.071,3.071,0,0,0-.508-1.682ZM42.929,51.465a1.686,1.686,0,0,1,.5-1.2,1.562,1.562,0,0,1,1.128-.458,1.609,1.609,0,0,1,1.57,1.6V55.28a1.451,1.451,0,0,0,1.292,1.447,5.414,5.414,0,0,1,4.825,5.392.692.692,0,1,0,1.385,0,6.8,6.8,0,0,0-6.059-6.768.069.069,0,0,1-.058-.071V43.767a1.6,1.6,0,0,1,3.2,0v9.176a.692.692,0,1,0,1.385,0V40.709a1.6,1.6,0,1,1,3.2,0V52.943a.692.692,0,0,0,1.385,0v-10.7a1.6,1.6,0,0,1,3.2,0v2.425h0v9.044a.692.692,0,0,0,1.385,0V46.826a1.609,1.609,0,0,1,1.57-1.6,1.563,1.563,0,0,1,1.128.458,1.686,1.686,0,0,1,.5,1.195V59.824A8.493,8.493,0,0,1,56,68.308H51.412a8.493,8.493,0,0,1-8.483-8.483Z" transform="translate(-30.075 -30.076)" fill="#0058ff"/>
</svg>
