<svg xmlns="http://www.w3.org/2000/svg" xmlns:xlink="http://www.w3.org/1999/xlink" width="1000" height="652" viewBox="0 0 1000 652">
  <defs>
    <filter id="UZB357" x="312.7" y="134.5" width="340.9" height="378.1" filterUnits="userSpaceOnUse">
      <feOffset dy="7" input="SourceAlpha"/>
      <feGaussianBlur stdDeviation="7.5" result="blur"/>
      <feFlood flood-opacity="0.161"/>
      <feComposite operator="in" in2="blur"/>
      <feComposite in="SourceGraphic"/>
    </filter>
  </defs>
  <g id="Сгруппировать_136" data-name="Сгруппировать 136" transform="translate(-333 -759)">
    <path id="UZB354" d="M533.4,482.1l-2.7,2.1-5.8,5.8-.7.6-.7.3-.6-.1-.7.1-.4.2-.4.3-4.4,4.8-.5.8-.4.6-.1.4v.4l.1.4.1.3.3.7.4.6,1.8,2.3.2.3.2.3v.5l-.1.6-.3.3-.3.2-9.7,3.5-3.1,1.1-8,3.3-2.7,1.8-5.3,5.9-.9.9-1.8-2.3-1.4-.8-1.7.2-4.5,2.2-1.5.4-1.7-.4-1.8-.9-9.3-6.7-8.1-5.8-6.5-4.6-3.5-3.7-6.2-8.7-3.7-3.6-8.1-5.7-19.2-13.7-9.4-6.8-7.9-5.7-6.8-4.8-3.4-3.4-.6-.4-4.2-5.3-.6-2-1-4.3-.2-1.7.2-1.6.5-1.4.3-1.4-.2-1.6-1.8-3.9-.2-1.6v-2l-.3-1.5-.4-1.4-1.5-3-.4-1.4-.2-3.2-.5-.7-4.8-2.8-2.8-.8-1.3-1-.2-.5L374.1,388l3-6.5-.7-2.6-1.9-2.9L365,365.3l13.1-6.3v-1.1l-16.5-23,20.6-7.8,4.9.1,1.8,4.3,1.5,2.5,9.7,11.6,7.9,13.9,1.4.8,5.1,1.1,7.6,3,9,5.1,17.5,10.8,1.3,2.3,2.1,2.1-.1,1.5,7-2.4,4.1-6.2,3.5-7.2,1-1.5,1.1-1,1.2-.4,1.1.3,1.1,1,1.2,1.8.3,2.6.1,5,.8,1.7,2.5.9,15.7,1.9,1.3-1.3,1.8-6.8,1.1-.6,2-.8,7.7-.3,2.5-.5,1.9-.8,1.8-2.7.7.1.5,1.8,1.3,7.8.5,2,.8,2.3,2,1.6,2,1.2,5.8,1.4,17.6,1.2,2.8-.8-1.4,4.8-.3,1.9-.1,2v1.9l.1,1.6.3.9-.1.9-.8-.1-3-.6-.6-.1-.5.2-.5.4-.6,1-.1.9-1.6,4.9-1.3,1.5-1,1-1.3,4.2-.7,1.3-6.8-.1-1.3-.4-1.3-.9-1.1-1-1.2-.3h-1.3l-2,.3-1,.6-.5.6-.2.7-.1.8v.6l.3,1.5,1.5,1.5-1,2.8-.5.5-.3.1v.2l.1.3.6,1.1,1.7,1.7.9,1.2.3.5-.1.2-1.7.2-.4.1-.4.3-.4.3-.6.1-.8.7-2.8,5.6L512,437l-1,1-1.1.8-3.5,1.6-.5,1-.4.5-.2.3-1.9,2.4-1,2.1-.8,1.9.9,1.9,4.2,5.9,1.7,1.1,2.7,1.5.1.4.3.7.2.6.8.5h1.1l2.5-1.1.9.1.5.9,7,3.3,1,1.7.5,1.7v1.3l.2,1.6.5,1.6,1.1.6,1.4.5.9.5,1,1.1.9,1.2.3.5.3.8.6,2,.1.5.1,2.1Z" transform="translate(333 759)" fill="#d5d7e3" stroke="#fff" stroke-linecap="round" stroke-linejoin="round" stroke-width="2"/>
    <path id="UZB355" d="M365,365.3l9.5,10.7,1.9,2.9.7,2.6-3,6.5L362,403.1l-.1-.1-.5-1.8-.3-.7-2.2-2.9-.8-1.6-1.2-4.7-.7-1.1-1.9-2.1-.6-1-.5-1.6-.6-3.5-1.9-6.5-.6-1.5.4-.6-.3-1.1-.1-5.4-.2-1.6-.5-1.3-4.3-7.2-1.1-1.2L331,346l-5-2.2-5.7-1.5-2.1-.3-1.3.7-.8,1.6-.6,2.7-1.4.8-1.1,2.5-1.7,1.8-2,1-2.2.1-2.3-1-6-4.3h-1.1l-3.4.6-.3-.7-.2-.7-.2-.2-1.1,1.9-.4.4-.4.4-2.8-2.9-4-1-11.7.7-7.1,2.4h-3.5l-2-.5-1.6-1.2-3.2-3.2-3.5-2.6-5.6-2.9-6.4-3.3-1.6-1.6-.4-1.8.7-6.3.5-1.3.7-1.1,1-.9,2.4-1.2.8-.9-.5-1.5L240,313l-1.7-3.4-.6-2.8,1.5-2.1,1.6-1.1,1.8-.2,2.2.7,2,1.3,1.2.5.9-.1.6-1-.1-1.1-.5-1.1-.7-.9-.8-.7-2.8-1.7-.9-.9-.6-1,.7-.7.6-1.8-.1-.8-.6-1.4-.2-.3-.1-.4.2-.3.4-.3.9-.2,1.6-.1,1.2-.5,3-2.1,1.1-1,.3-.2,1-.1,1.2.9.6.4,2.9.7,2.9.3.8.7.2,1.6v3.5l.5,1.3,1.5,2.4.7,2,1.6,2.9.8,1.1,1,.7,1.3.3h2.7l1,.6.6,1.3,1,3,1.5,2.7,1.9,2.1,13.7,12.5,1.5.3.8.3.6.5,2.1,2.3,1.8,1.7,1.3.5,3.4.6,1.1.7,3.1,3.4.7,1.1.7,2.3.9.4.4.3,1.3.5,1.5-.1,1-.8,2.3-4.5,1-1.1.9-.7,1-.5,1.2-.3h3.1l11.1,2.7,2.8,1.2,2.7,1.6,3.4,2.6,9.9,11,6.9,11.1.3.2.8.5.8.3,3.1-1Z" transform="translate(333 759)" fill="#d5d7e3" stroke="#fff" stroke-linecap="round" stroke-linejoin="round" stroke-width="2"/>
    <path id="UZB356" d="M352.7,170.4l6.3,10.7,2.9,2.7,15.7,4.3.9.5v.8l-.4,1-15.8,29.9L347.4,249l-3.2,7.5-1.3,16.3v.9l.2.8,6.6,12.2,1.2,2.5-.3.4-.7.7-12.5,7.1-1.2,1.1v1l.5,1.1,24.9,34.3,16.5,23V359L365,365.3l-3.1,1-.8-.3-.8-.5-.3-.2-6.9-11.1-9.9-11-3.4-2.6-2.7-1.6-2.8-1.2-11.1-2.7h-3.1l-1.2.3-1,.5-.9.7-1,1.1-2.3,4.5-1,.8-1.5.1-1.3-.5-.4-.3-.9-.4-.7-2.3-.7-1.1-3.1-3.4-1.1-.7-3.4-.6-1.3-.5-1.8-1.7-2.1-2.3-.6-.5-.8-.3-1.5-.3-13.7-12.5-1.9-2.1-1.5-2.7-1-3-.6-1.3-1-.6h-2.7l-1.3-.3-1-.7-.8-1.1-1.6-2.9-.7-2-1.5-2.4-.5-1.3v-3.5l-.2-1.6-.8-.7-2.9-.3-2.9-.7-.6-.4-1.2-.9-1,.1-.3.2-1.1,1-3,2.1-1.2.5-1.6.1-.9.2-.4.3-.2.3.1.4.2.3.6,1.4.1.8-.6,1.8-.7.7-1.4-2-1.7-1.5-6.1-2.3-3,.1-.8-.4-.7-1.1.1-1,.7-.8,1-.3h.1l3.4-1.3-.2-3.1-1.1-3.9.5-3.6,1-.7,1.2-.5.9-.7.2-1.3-.7-1-1.3-.8-2.6-1-2.1-1.9-1.6-2.5-1.8-2-2.6-.3-2.6.3-5.1-.5-12.3,1.9-3-.1-1.4-.5-2.3-2.5-1.4-.5-3-.3-1.6-1-.8-1.4-.7-6-.5-1.5-.9-1.3-3.7-3.9-1.4-.9-1.4.2-1.7.8-1.7.5-1.7.1-2.6-.5-4.1-1.8-3.9-3.7-12.5-14.7-1.4-.9-1.1,1.8-.8,6.7-1.2,2.3-2.4.8-3-.2-3-.7-6.2-2.6h-1.5l-1,.3-3.1,1.9-2.2,1-1.1.8-.5,1.1.3,1.6,1.1.9,7.3,3.5,2,1.6,1.8,2.7,1.6,3.7,4.3,7,2.3,2.8.7.6.3.7-.3.7-.7.4-3.7.6-1-.3-.6-1v-1.2l.3-1.4.2-1.4-.6-2.8-1.5-2-2-1.5-5.7-2.7-1.3-.3-1.1.2-2.1.9-.9.1-1-.5-1.3-2-.8-.8-1.1-.4-1.3-.1-1.3.3-1.1.5-.6.7-.5,1-1.5,1.7-1.6.7-1,.8.4,2.1,1.2,2.7.1,1.2-.5,1.9-2.4,5.4-.8.9-2.2.8-.5,1,.4,1.2.8.9.1.7-1.2.9-1.2.3-3.9-.2-1.1.3-3.3,1.6-1.3.2-.4-3.3-.5-2-.8-1.6-1.1-1.3-1.4-1.1-3.1-1.7-2.5-.3-.6-.2-.6-.5-.8-.6-1.2-1.9-.7-.6-1-.2-1.5.1-3.3,1.1L75.9,263l-1.5,1.4-.6.6L72,268.8l-7.3,22.9-.2,1.2v.4l-5.2,2.5-1.7,2.3v3l1.3,6.1-.2,3-.4,2.5-.1,2.4,1.1,2.8,1.3,2.1.6,2.1.2,2.2V327l.3,2.2.7,2.1,1.2,2,1.2,1.4.9.6.8.4,3,.7.4.4-.1.5-.7.8-1.2.9-2.7,1.3L64,341.7l-1.8,3.2-1.1.7L54,344.1,48.5,343l-13-.8-14.1-.7-10.8-.6-9.4-.5-.1-35.7V159.5L1,141.1V47.6l.2-.1,5.4-1.8L12,44l5.5-1.8,10.9-3.5,5.4-1.8,5.5-1.7,5.4-1.8,10.9-3.5,5.5-1.7,5.4-1.8L72,24.7l5.4-1.8,10.9-3.5,7.3-2.3,7.2-2.2,7.3-2.2,7.3-2.3,3.3-1,3.4-1,6.7-2,3.5-1,7-2,3.5-1L149.5,1l1.4.1,1.6.7.5.4-.1.1L152,4.7l-.2,1.5-.3.9-.8,1.7-.2,1v2.3l-.2.6-.2.2-.5.3-.2.2-.2.3-.5,1.5-2.1,2.9-.3.5-.1.2-.6.6-2.7,3.8-.3.6-.1.6-.2,2.1-.7,2.2-.8,1.7-.3,1.3-.3,2.6-.3,1.3-.5,1.3-.6,1.2-.4.5-.8.8-.4.5-.2.6-.1.6-.2,1.2-.2,1.2L132.6,53l-.5,3.7-.2,2.4.1,2.4,1.2,3.5,1.2,3.1,1.6,2.6,1,3.6-.1,1.9-.4,1.3-.5,1.2-1.2.8-1.4,2-.3,1.4-.4.8-.3.6-.1.7.4,3,1,3.3,1.5,1.4,1.1,1.2,2.3.4,2.8-.2,2.9-1.6,3-2.5,2.6-2.4,1.7-2.2.9-1.4.7-1.3,1.2-1.4,1.4-2,1.3-2.2,1-1.5,1-1.4.3-1-.8-1.5-1.2-.5-1.4-.6.8,1.9-1,.3-1.4-.4-.6-1,.6-3.1.7-1.4.4-1,1.2-.4.8-.4,1.2.4.3,1.6.3,1,.8.8,1.2.3,1.9-.5,1-1.2-.3-1.6-1.3-1.2-.7-1.2.6-2.1.1-2.6-.7-2.7-.5-2.4V52l1.2-.3,1.6-.3.8-1.8.3-2,.5-1.5.4-2.4-1.3-.8-1.3,1-1,2-2.2,1.3-1.4.2-1.5,1.2-1.7-1.2-.1-1.9.7-2,1-2.3.9-2,1.8-2,.9-1.7,1.6-1.6,1.7-1.7,1.3-.6-2.7-2-1.5-1.9-1.3-5.1-.5-3.3-.2-2.2.2-2.5.8-2.9.9-2.4.5-1.2,5.7,3.9,7.4,5,5.1,3.4,13.7,9.4,8.9,5.9-.2.4L201,38l-.8,1.6-1.1,3.7-.9,2.4-1.7,2.9-1.3,1.6-.6,2.9-.7,2.8L193,58l-1,1.8-2,2.7-.9,2-.7,2-.4,2,.7,4.1,1.5,3.5,1.8,2.4,4.8,5.5,7.2,7.2,3.8,3.7,3,2.2,3,2.4.7.7.2,1.1-.3,2.3-1.2,1.8-2.7,1.8-.9,2.4-1,2.4-1.3,2.4.9,2.2,2.9.5,2.6-.2,2.3-.7,1.5-1.4,2.1-.2,2.3.4,2.2-.8,2.4-1.6,3.3-2.2,1.5-2,.3-1-.8-.9-1.1-.1-1-.4-.6-.6-.2-.7v-.9l.3-.6.4-1,.7-.6.5-.6h1l1.5.1,1.6.3,1.1-.3.9-.9.4-1.1.8-2.7.4-2.6-.3-2.6-.7-4.3-1-3.3-1.3-2.7-.4-2.6-.1-2.2,1-1.4,1-.8,1.1-1.3.8-1.8.5-2.3v-3l.1-3.9v-2l1.1.8,11.3,7.5,10.6,7.2,9.8,6.4,8.4,5.7,12.1,8,3.6,2.4,1.5,1.7,1,2.2.4,1.9.4,4.2.6,1.9,3.4,5.5,6.6,7.3,3.2,3.4,3.2,3.5,4.1,4.7,3.3,3.8,6.7,7.8,3.3,3.8,3.3,3.8,3.3,3.8,6.5,7.5,4.4,5,2.3,1h.1Z" transform="translate(333 759)" fill="#d5d7e3" stroke="#fff" stroke-linecap="round" stroke-linejoin="round" stroke-width="2"/>
    <g transform="matrix(1, 0, 0, 1, 333, 759)" filter="url(#UZB357)">
      <path id="UZB357-2" data-name="UZB357" d="M627.6,353.4v.3l-7.1,2.9-.5,1.2-.7.9.9,10.8.1.4.2.3.3.7.5.6.4.2.8.5,5.2,1.4.3.3.2.3.2.3v1.3l-.2,1.4v1.3l.1.4.5,1.3,1.3,2.3-1.6,4.1-8.9,17.3-1.1-1.1-.7-.9-.2-.3-.1-.3-.1-.3v-.4l.4-1.2v-.7l-.1-.3-.1-.3-2-2.3-1.7-1.5-.6-.3-.5-.1-.6.2L608,397l-1.3.6-1.2.2-.9-.2-1.1-.4-1-.6-1.2-.9-.9-.4-.8-.1-.8.2-.7.6-.7.7-.5.9-.5,1-.7,2.1-.2,1.2v1.2l.5,1.4.4.6.3.6-.1.6-.4.9-.4.4-1.2.5-.3.5v.6l.7,1.8.2,2.7-.4,1.7-.8,1.7-.1.5.1.5.3.4.8.8v.7l-.3.5-1.5,2.1-.5,1-.3,1-.5,1.7-1.5,3.6-.1.5.1.5.3.1h.4l1.1-.2h.5l.5.1.5.2.3.5.2.4v.6l-.3.7-.6.6-3.7,3.5-.7.4-12.5,2.6-2.5-.5-2.5-1.6-1.2.4-1.1-.6-1.1-.8-2.4-.9-.9-1-1.5-2.1-.6-.1-.2-.1-1.1-.2-5.3-2.4h-.9l-.4.2-.3.3-.3.8-.2.5-.1.3.1,1-.2,1.5v.4l-.1.4-.2.2-.1.4-1.5,2.2-.1.5.2.3h.4l.4.1.3.2.3.3.1.4-.1.4-.2.6-.9,2-.2.5-1,3.9-.4.9-.5.3-.7.3h-1.7l-1.6-.2-1.7-.8-2-1.1-.4-.1-.4.2-.3.5-.1.5-.2,1.3-.5.4-.5.4-3.5.9-2.8.4-.6.1-.3.2-.3.3-.1.4.4.9,1.8,2,1.1,1,.5.5.5.7,1.7,6.4.1.6-.1,1.1-.1.7-.2.6-1.7,3.9v.4l.7,2.3,3.1,6.2-1.1.7-5.8,1.3-.1-2.1-.1-.5-.6-2-.3-.8-.3-.5-.9-1.2-1-1.1-.9-.5-1.4-.5-1.1-.6-.5-1.6-.2-1.6v-1.3l-.5-1.7-1-1.7-7-3.3-.5-.9-.9-.1-2.5,1.1h-1.1l-.8-.5-.2-.6-.3-.7-.1-.4-2.7-1.5-1.7-1.1-4.2-5.9-.9-1.9.8-1.9,1-2.1,1.9-2.4.2-.3.4-.5.5-1,3.5-1.6,1.1-.8,1-1,.8-1.1,2.8-5.6.8-.7.6-.1.4-.3.4-.3.4-.1,1.7-.2.1-.2-.3-.5-.9-1.2-1.7-1.7-.6-1.1-.1-.3v-.2l.3-.1.5-.5,1-2.8-1.5-1.5-.3-1.5v-.6l.1-.8.2-.7.5-.6,1-.6,2-.3h1.3l1.2.3,1.1,1,1.3.9,1.3.4,6.8.1.7-1.3,1.3-4.2,1-1,1.3-1.5,1.6-4.9.1-.9.6-1,.5-.4.5-.2.6.1,3,.6.8.1.1-.9-.3-.9-.1-1.6v-1.9l.1-2,.3-1.9,1.4-4.8-2.8.8-17.6-1.2-5.8-1.4-2-1.2-2-1.6-.8-2.3-.5-2-1.3-7.8-.5-1.8-.7-.1-1.8,2.7-1.9.8-2.5.5-7.7.3-2,.8-1.1.6-1.8,6.8-1.3,1.3-15.7-1.9-2.5-.9-.8-1.7-.1-5-.3-2.6-1.2-1.8-1.1-1-1.1-.3-1.2.4-1.1,1-1,1.5-3.5,7.2-4.1,6.2-7,2.4.1-1.5-2.1-2.1-1.3-2.3-17.5-10.8-9-5.1-7.6-3-5.1-1.1-1.4-.8-7.9-13.9L390.4,334l-1.5-2.5-1.8-4.3-4.9-.1-20.6,7.8-24.9-34.3-.5-1.1v-1l1.2-1.1,12.5-7.1.7-.7.3-.4-1.2-2.5-6.6-12.2-.2-.8v-.9l1.3-16.3,3.2-7.5,14.9-28.7,15.8-29.9.4-1v-.8l-.9-.5-15.7-4.3-2.9-2.7-6.3-10.7,4.8-.9,4.1-.7,7.4-1.4,6.6-1.2,3.3-.6,5.3-.9,5.3-.9,26.5-4.3,5.3-.9,8.9.9,8.8.8,8.9.8,8.8.8,8.1.7,8,.7,8.1.8,8,.7,3.2.3,2-.6,5.9-3.2,5.6-3.1,5.8-3.3,5.6-3.1,1.1-.4,1-.4,1.9.3.9.9,1,.8,6.3,8.2,6.2,8.2,2.9,3.1,2.9,3,6,3.8,6,3.7,2.3,2.1,4.9,10.2,3.2,6.5,4.3,9,3.8,7.7,1,.1,8.4-4.5,8.3-4.6-1.2,19.7-1.3,19.6-.3,4.2-.5,1.4-1.4.5-.3,1.1-.3,15.3-.2,15.2.2.9.5.4h13.3l6.4.1h7l.4-.1.5.1h.4l.3.2,1,9.9,1,9.8,1.8,9.6,1.9,9.6,2.5,11.5,2.5,11.3,1.3,1.6,1.3,1.6,1.4.4Z" transform="translate(0 0)" fill="#57b8ff" stroke="#fff" stroke-linecap="round" stroke-linejoin="round" stroke-width="2"/>
    </g>
    <path id="UZB358" d="M619.6,403.9l.5.4,7.3.3,2.4.7.9.2,1,.2,1.3-.1,1.5-.3.4-.1.3.3.3.4.4,1,.3.7.1.8-.1,1-.3,1.1-.5,1.2-.1.4-.1.5v.5l.1,3.6.1,1.3.8,4,.2.3.2.4.4.4,1.2.5.3.3.2.3v.6l-.2.4v.6l.2.6,1.6,1.9-.1,1.8-.2.7-.2.2-.3.3-1.1.3-.3.2-.1.4-.1.4.3,3.4.2.4.2.3.7.2h.5l.5-.1.3-.1,1.1-.5.3-.1h.8l.4.3.3.5.1,1-.2.5v.7l.1.4,2,2.2.8-.3h.3l.2-.1.7,1.1,4.6,1.3.7.1.9-.1.4-.1h.4l1,.6.4.2.5.1.6-.2,1.3.1,10.1,1.9,1,1.6,1.5,7.1-.2.6-.9.2h-.4l-1.6.4-1.2.4-1.9,1-.9.7-.4.4-.1.4-.2.5v1.8l.1.5.1.4.1.7v1.4l-.1.4-.3.4-.5.2-.5.1h-1.8l-.7.2-.4.7-.2.6-.1,5.2.6,1.3.8,1,2.4,2.1,4.4,3.9-.5.7-.7,2.9-.4,3-.1,2.8-.7,2.5-.4,2.5-.4.2-.6-.2-.6.2-.1.1-13.9-3.5-3.1-.2v.4l.1.8v.7l-.2.4-.2.3-.3.3-.3.1-.7.2-6.4.2-.8-.1-.4-.2-.4-.2-.4-.3-.2-.4-.1-.6.1-1.2.4-2-.2-1.1-1.2-2.2-1.2-.2-5-1-4.5-.7h-.8l-1,.3-.9.5-.5.4-.4.4-1.9,2.9-.5.5-4.4,1.8h-.4l-.8-.2-.9-.5-3.5-2.7-1.4-1-1.1.1-8.4,1.9-.3.1-5.6,2.7-1.2.8-.9.3h-2.1l-3.9-1-.3-.3-.3-.5-.1-.8-.1-.6v-.5l.1-1.2V487l-.2-.5-.2-.4-1.4-1.1-1.8-1.2-3-3-.6-.8-.4-.6-.1-.4-.6-2.5-.1-.3-.2-.3-.3-.3-.3-.2-.4-.1-.5-.1h-1.8l-.7.1-.5.3-.1.4v1.9l-.1.4-.2.3-.2.3-1.3.9-1.2.7-.7.2-24.8-.6-3.1-6.2-.7-2.3v-.4l1.7-3.9.2-.6.1-.7.1-1.1-.1-.6-1.7-6.4-.5-.7-.5-.5-1.1-1-1.8-2-.4-.9.1-.4.3-.3.3-.2.6-.1,2.8-.4,3.5-.9.5-.4.5-.4.2-1.3.1-.5.3-.5.4-.2.4.1,2,1.1,1.7.8,1.6.2h1.7l.7-.3.5-.3.4-.9,1-3.9.2-.5.9-2,.2-.6.1-.4-.1-.4-.3-.3-.3-.2-.4-.1H552l-.2-.3.1-.5,1.5-2.2.1-.4.2-.2.1-.4v-.4l.2-1.5-.1-1,.1-.3.2-.5.3-.8.3-.3.4-.2h.9l5.3,2.4,1.1.2.2.1.6.1,1.5,2.1.9,1,2.4.9,1.1.8,1.1.6,1.2-.4,2.5,1.6,2.5.5,12.5-2.6.7-.4,3.7-3.5.6-.6.3-.7V432l-.2-.4-.3-.5-.5-.2-.5-.1h-.5l-1.1.2h-.4l-.3-.1-.1-.5.1-.5,1.5-3.6.5-1.7.3-1,.5-1,1.5-2.1.3-.5v-.7l-.8-.8-.3-.4-.1-.5.1-.5.8-1.7.4-1.7L595,411l-.7-1.8v-.6l.3-.5,1.2-.5.4-.4.4-.9.1-.6-.3-.6-.4-.6-.5-1.4v-1.2l.2-1.2.7-2.1.5-1,.5-.9.7-.7.7-.6.8-.2.8.1.9.4,1.2.9,1,.6,1.1.4.9.2,1.2-.2,1.3-.6,4.2-2.9.6-.2.5.1.6.3,1.7,1.5,2,2.3.1.3.1.3v.7l-.4,1.2v.4l.1.3.1.3.2.3.7.9,1.1,1.1Z" transform="translate(333 759)" fill="#d5d7e3" stroke="#fff" stroke-linecap="round" stroke-linejoin="round" stroke-width="2"/>
    <path id="UZB361" d="M662.5,495.2l-.4.4-.3.3-.1.5-.1,1.1.4,3,1.6,1.5,7.1,2.5,4.7.2,2.3.9.2.3.5.9.3.3.4.1,1-.2.4.1.5.9.1,1-.7,5.8.3,1.9h.1l-.9.7-1,.4-4.2.2-.8.2-.6.3-.4.2-.3.3-.5.4-.3.6-.2.5v.6l.5,1.8.3,2.7,1.4,2.5.1.3.1.4v.5l-.1.4-.1.5v.4l-.1.4v.4l.1.4v.4l.2.3.1.8.1.4v.4l-.2.6-.3.6-.6.9-.3.6-.1.6v1.3l-.1.3-.2.3-.4-.1-.3-.2-1.1-1.1-.2-.2-.3-.2-.4-.2-.9-.2-.9-.1h-.8l-.8.2-.8.4-.5.4-.4.4-.3.3-3.5,6.8-.6.8-1,1.1-.6.4-.9.5-2.3.6-.4,1-.7,1.1-1,1.1-2.2,1.8-.3.5-.4,1-.3,1.2-.6,3.8-.5,1.8-.1.4-.8.8-6.4,5.2-3.3,1.8-.7.2-2.1.4-.5.3-.5.7-.9,1.5-.6,1.5-.3.8-.3.9-.4.9-.4.8-7.1,6.6-.5.7-.3,1.2-.3,2.9-.3,1-.9,1.8-1.8,1.1-.7-2-1.9-1.4-2.1-1.1-2.3-.6h-4.4l-1.8-.5-5.9-2.8-2.7-3.4-1.7-1.7-1.9-.8-3.8-1.1-3.6-2.9-1.6-.9-3.9-.6-5.8-2.8-2-.2-1.6.7-2.8,2.2-1.5.9-4,.3-3.9-1.3-9.6-6.5-5.8-3.9-7.8-5.3-5.5-5.1-7.8-7-3.9-2.5-8.5-3-7.5-4.3L492,525.7l-3.3-4.3.9-.9,5.3-5.9,2.7-1.8,8-3.3,3.1-1.1,9.7-3.5.3-.2.3-.3.1-.6v-.5l-.2-.3-.2-.3-1.8-2.3-.4-.6-.3-.7-.1-.3-.1-.4V498l.1-.4.4-.6.5-.8,4.4-4.8.4-.3.4-.2.7-.1.6.1.7-.3.7-.6,5.8-5.8,2.7-2.1,5.8-1.3,1.1-.7,24.8.6.7-.2,1.2-.7,1.3-.9.2-.3.2-.3.1-.4V476l.1-.4.5-.3.7-.1h1.8l.5.1.4.1.3.2.3.3.2.3.1.3.6,2.5.1.4.4.6.6.8,3,3,1.8,1.2,1.4,1.1.2.4.2.5v1.1l-.1,1.2v.5l.1.6.1.8.3.5.3.3,3.9,1h2.1l.9-.3,1.2-.8,5.6-2.7.3-.1,8.4-1.9,1.1-.1,1.4,1,3.5,2.7.9.5.8.2h.4l4.4-1.8.5-.5,1.9-2.9.4-.4.5-.4.9-.5,1-.3h.8l4.5.7,5,1,1.2.2,1.2,2.2.2,1.1-.4,2-.1,1.2.1.6.2.4.4.3.4.2.4.2.8.1,6.4-.2.7-.2.3-.1.3-.3.2-.3.2-.4v-.7l-.1-.8v-.4l3.1.2,13.9,3.5Z" transform="translate(333 759)" fill="#d5d7e3" stroke="#fff" stroke-linecap="round" stroke-linejoin="round" stroke-width="2"/>
    <path id="UZB362" d="M620.5,593.7l1.8-1.1.9-1.8.3-1,.3-2.9.3-1.2.5-.7,7.1-6.6.4-.8.4-.9.3-.9.3-.8.6-1.5.9-1.5.5-.7.5-.3,2.1-.4.7-.2,3.3-1.8,6.4-5.2.8-.8.1-.4.5-1.8.6-3.8.3-1.2.4-1,.3-.5,2.2-1.8,1-1.1.7-1.1.4-1,2.3-.6.9-.5.6-.4,1-1.1.6-.8,3.5-6.8.3-.3.4-.4.5-.4.8-.4.8-.2h.8l.9.1.9.2.4.2.3.2.2.2,1.1,1.1.3.2.4.1.2-.3.1-.3v-1.3l.1-.6.3-.6.6-.9.3-.6.2-.6v-.4l-.1-.4-.1-.8-.2-.3v-.4l-.1-.4V531l.1-.4v-.4l.1-.5.1-.4v-.5l-.1-.4-.1-.3-1.4-2.5-.3-2.7-.5-1.8v-.6l.2-.5.3-.6.5-.4.3-.3.4-.2.6-.3.8-.2,4.2-.2,1-.4.9-.7,1,1,7.4,1.3,1.6-.1,4.4-1.5.8-.4.8-.2h.9l.9.4.5.2.9.9.9.2,1-.4,1-.7.4-.1h1l.5.1.9,1.1,1.9,4.4,1.7,2.5.6,1.5-.1,1.6-.5,1.3-.7,1-.9.8-1,.5-1.4.3h-1l-.6.4-.2,1.6.1.8.4.6.2.7v.9l-.3.4-1.5,1.1L702,540l.1,1.3.8,2.8.1,1.5-.2,4.3.2,1.6.4,1,1.4,2.2.4,1.1.1,2.4.2,1,.5,1.1,2.3,2.2,2.2,3.9,1,1.1,3,1.7,4.6,4.1,1.4,2.2.2,2.9-.9,4.3-1.4,4.1-2.3,3.5-.7,1.4-.5,1.2-.2,1.2-.5.9-.9.7-.9.2-2.7.4-1.8.6-1,1.1-2.5,7.5-1.7,3.4-4.2,5.9-3.2,3-3,3.8-2.4,4.3-1.7,4.5-.2,3.1,1.2,5.8.2,3.1-.3,2.6-.7,2.5-1.1,2.2-.3,1-.2-1.3-.7-1-1-.6-1.2-.3-2.1.1-.8-.1-.6-.4-1.3-.9-.6-.2-.7.1-1.1.3-.6.1-.4.3-.3.7-.5.7-.6.3-1-.9-1.1-3-1.3-.7-1.2.4-1.1.8-1.9,1.9-1.1.9-1.2.6-1.3.3-1.4.2-1.5.3-2.2,1.4-1.3.3-1.3-.5-.6-1.1-.5-1.4-.5-1.3-1.2-1-2.6-1-1.2-.8-.5-1.1-1-3.2-.7-.6-1.2-.4-2.3-1.6-1.1-.6h-2.8l-5.3,1.2-7.6.4-.6.2-1.2,1-.6.2h-1.6l-.7-.2-3.8-1.6-1.4-.2-1.5.2-1.1.3-1.5-1.1.1-1.3.9-1.3,1.1-1.1.9-1.5-.2-1.2-.9-1-1.2-1-.8-2,.3-2.7,1.2-4.9.2-2.9-.4-5.8.2-2.9,2-3.6,3.3-4.2,2.1-4.2-.6-1.5Z" transform="translate(333 759)" fill="#d5d7e3" stroke="#fff" stroke-linecap="round" stroke-linejoin="round" stroke-width="2"/>
    <path id="UZB363" d="M945.5,406.7l-.1-.4-.5-1.8-.1-1,.2-1.4.2-1.4v-1.4l-.1-.4-.8-.7-3-.9-.7-.1-.4-.3-1.1-1.7-.8-.6-.6.5-.6.8-1,.1-3.5-.7-2.8-.9-1.6.1-1.2.2-1.4-.2-.5-.2-.5-.3-2.3-3.2-.5-.9-.5-.5-.7-.4-3-1-.9-.1-.7.1-.3.2-.5-.1-.8-.2-1.6-.9h-.6l-.3.3-.1,1.3-.3-.1-.6-.9-1.2-2.4-1.8-2.6,1.7-1.7-.9-1.9-.7-.9-.1-.6.3-.4,1.9-1.8.7-.5.8-1.1,6-1.6,1.9.9,2.4-1.1.7-.2h1.3l1.4.1,1.6-.2,7.6,1.9,1,.1,1-.2,3.5-.1.8-.2.4-.2.2-.1.5-.4,1.4-6.4.3-1.3,3.3-1,2.2-.3.4-.4.7-2,.3-.5,1.1-.9.7.5,1.7,2.6,1.2.8,1.7.5,3.1.3.3.2.1.3v.4l-.1.5v1.8l1.1.5,1.4.1,1.2.5,2.4,3.9,1.8,1.9,2.3,1,2.5.3,7.5-.7,2.2.7.3,2.2-.2,1.3.8-.1,2.7-1.9,4.3-2,.9.6.8,1.2,1.2.8,3.4-.2,1.8.4.3,1.5-1.8,2.4-2.7,1.6-5.5,2-5,3.1-4.2,1.1-2,.9-1.4,2.1-.7,5.1-1.7.8-2.1-1h-1.1l-.4,1.3-.1,1.1-.3,1.1-.5.9-.9.8-2.3.1-4.1-2.8-2.2-.3-1.7-.9-1.9-2.2-2-1.7-1.7.8-.2,1.2,1.3,2.1-.1,1.4-.3,1.3v.8l.5.7,2.5,1.8.6,1.6v1.8l-.7,1.9-1.2,1.6-1.3.3-1.6-.6-3.4-2-.9-.3-2.6.1-.8-.3.3-.7.7-.2,1-.1.8-.2.3-.8-.6-.5-1-.1-.5.1Z" transform="translate(333 759)" fill="#d5d7e3" stroke="#fff" stroke-linecap="round" stroke-linejoin="round" stroke-width="2"/>
    <path id="UZB364" d="M918.1,449l-.9.2-1.4-.5-1.2-.5-1.2-.9-.6-1.1,1-1.2h1.4l1-.5,2.1-1.6,1.5-.5.2.8-1.3,4.9-.6.9ZM884,438.4l.4.1.3-.2.6-.5.4-.2,1.4-.4.8.2.4.7-.4,1.2-2.7,1.9-.9.9.1,2,2.6,2.7-.1,2.4-.7.9-.8.3h-1.9l-2.8.8-.8-.1-.7-.7-.1-.8-.3-.6-1.1-.1-.7.5-.8.8-.8.5-.7-.4-.1-1.9,2.5-3.9-.3-2.3-.7-.5-1.5-.3-.8-.4-.6-1-1.5-3.1-.3-1.3.1-1.2.3-1.4,1-2.3,1.8-1,1.3.8,1,1.8.8,2.1,1,1.3,1.6,1,3.2,1.4.2.2Zm23.9-55.8,1.8,2.6,1.2,2.4.6.9.3.1.1-1.3.3-.3h.6l1.6.9.8.2.5.1.3-.2.7-.1.9.1,3,1,.7.4.5.5.5.9,2.3,3.2.5.3.5.2,1.4.2,1.2-.2,1.6-.1,2.8.9,3.5.7,1-.1.6-.8.6-.5.8.6,1.1,1.7.4.3.7.1,3,.9.8.7.1.4v1.4l-.2,1.4-.2,1.4.1,1,.5,1.8.1.4-2.6.1-1,.2-3.9,2.2-.5.8-.4,1.4-.8,2.1-1.5,1.6-5.1,2.5-.3,1.1.4,1.2,1.1.7,1.7.8.8.6.3.6-.4.8-.8.2-.9-.1-.7-.3-.4-.1h-.4l-.7.2-2.2-.2-2.3-.5-2.2.1-1.8,1.8-1,2.4-.7,1.1-.9.9-3.1,1.8-.8.2-1.2-.5-.3-1.2v-3.1l-.4-1.5-.8-1.7-1.1-.9-1,.9-.4,1.5-.1,1.3-.5.9-1.4.1-2.8-.5-1.3-.6-1.2-.7-1.1-1.1-.5-1.1-.5-.9-2.6-.8-1.8-1.7-1.2-.1-1.8.2-1-.1-.8-.4-.6-.7-.5-.8-.6-.4-.8.2-1,1.4-.5,1.7-.8,1.3-1.8.2-6.8-1-3.4.6-2.1,2.1-1.2-.1-5.1.5-8.3,2.5-2.5.2-2.4-.1-2.4-1.7-1-3.2L848,418l-1.5-2.5-1.3-.5-1.1.1-1.1.3-1.3.1-1.2-.3-2.9-1.3.8-2.7-.2-.3-.5-.6-.1-.1-.7-1.1-.1-.2-.1-.4-.1-1.6.9-1.5,1.7-1.1,4-.9.6-.3.6-.7,1.4-2.4.8-.8.8-.4.8-.2.9-.4.7-.7,2.1-2.5,3.5-2.9.9-.8.8-.7.5-.2,1-.2.2-.3.1-.4.2-.3.9-.6,1.5-.9.6-.8.5-.7.7-.7.9-.5.8-.1,1.6.2.8-.1,2.7-2.5h1.2l.9.4.5.3.4.4,1.8.2,6.6-.3-3.7,5,.3.4,2.3.2.4.2,1.7,1.8.4.2.6.2,1.1.2.6.2,1.2,1,2.7,1.5.8.2,1.3-.2,3.8-3.6,1.8-2.9,1.2-.9,5.1-2.8,4.8-1.6Z" transform="translate(333 759)" fill="#d5d7e3" stroke="#fff" stroke-linecap="round" stroke-linejoin="round" stroke-width="2"/>
    <path id="UZB365" d="M943.6,364.7l-.3,1.3-1.4,6.4-.5.4-.2.1-.4.2-.8.2-3.5.1-1,.2-1-.1-7.6-1.9-1.6.2-1.4-.1h-1.3l-.7.2-2.4,1.1-1.9-.9-6,1.6-.8,1.1-.7.5-1.9,1.8-.3.4.1.6.7.9.9,1.9-1.7,1.7-4.8,1.6L898,387l-1.2.9-1.8,2.9-3.8,3.6-1.3.2-.8-.2-2.7-1.5-1.2-1-.6-.2-1.1-.2-.6-.2-.4-.2-1.7-1.8-.4-.2-2.3-.2-.3-.4,3.7-5-6.6.3-1.8-.2-.4-.4-.5-.3-.9-.4h-1.2l-2.7,2.5-.8.1-1.6-.2-.8.1-.9.5-.7.7-.5.7-.6.8-1.5.9.1-.6.5-2.6-2.2-1.3-5.3-1.3-.9-1.1-.2-1.4.6-.9,1.1-.2,2,1.8,1.2.4.1-1.4-.5-.7-10.6-12-1.8-1.6-.2-.2-.1-.3-1.2-1.2.5-1.8-.2-5.7-.2-1.7-1.2-2-1.2-1.6-.3-.6-.2-.5v-.6l.1-.4,1.1-2.4.2-.5.3-1-.2-.7-1.6-.2-.2-.3-.2-.4-.1-1.2-.1-.9.1-.5.1-.5,2.9-3.8.5-.9.7-1.9h.4l1.9-.7,7.2-4.1,1.9-.3,1.1.7,1,1.3,3.3,5.6.5,1.6.1,1.6-.8,4.8.1,1.3.7,1.1.9-.1,1.2-.6,1.3-.1,1.1.5,1,.7,1,1,.8,1.1,1,1,1.2.1,2.5-.3,2.8.5,1.3.6,1.2.9,1,.6,2.2.3.9.8,1.5,2.4.9.7.6-1.5-.1-1.6-.3-1.4.1-1.1,1.2-.7,1.4.2.7.9.7,2.9.5,1.1.8.8.8-.1.6-1.5,1.4-1.8,4,3.4,1.3-1.1.3-2.7-.5-13.3.4-1,.8.2,2.8,2.6,2.5,1.1,2-.4,1.6-1.7,1.9-4.2.8-2.6.3-1.5-.2-1.4-1.7-2.2-.6-1.3,1.2-2.9.7-.9,1.3-.5,1.3.2.7,1,.3,1.5V327l-1.1,4.4.1.9.5.2.4-.6.2-.8.3-.5.6.3.3,1.2.6.3.4-.4.1-1.7.4-.3.4.2.5.4,5.5,8.2.9,2.3.3,2.6-.1,3.2.3,3.3,1.5.7,4.6-.8,1.4,1.2.9,1.3,1,.5,1.7-1,1.3-1.2,1.4-.8,1.4-.3,1.5.9.6,1.5.3,2.1.1,2.2.5,4V362l-.4,1.4-.8,1.9,1.8-.6Zm-90.2,4.2-.7-1.9-.8-1.3-1.4-1.2-1.6-.7-.9.2.6,1.6,1.1,1.1,1.7,2.3,1,.9,1.1.3-.1-1.3Z" transform="translate(333 759)" fill="#d5d7e3" stroke="#fff" stroke-linecap="round" stroke-linejoin="round" stroke-width="2"/>
    <path id="UZB370" d="M715.3,391.1l-.2,3.1-.7.8-3.2.6-.8.1-.3.2-.3.2-.1.4-.1,1.8-.4,2.9.2.4.3.3.9-.2,1.1-.3h.5l.2.9-6.9,15.8-.2,1.1-.2,1.2.3,2.1.2.6.3.6.3.2,1.6.3,13.2.3,17.4-4.3h.2l.1.1-.3.6-.3.4-.2.4-.3.5-.8,2.9-.2.5-.2.7.7,1.3v.1l-2.3.6-1.2.9,1.5,1.6,2.6,1.7,2,.8.6-.1-2.5,3.3-.9,1.6-.3.8V440l.1.4.2.7.4.8.4,1.4.2.7.1.4v.7l-.1,2.5-.2.4h-.3l-.1-.3-.3-.3-.3-.1-.3-.1-.5.3-.1.3.2.3.2.3,1.1.6.3.3.1.3-.1.4-.1.5-.3.7-.1,1.2-.1.7h-.2l-.6-.1-.6,1.7-.6,12.2-.3,1.8-.8,1.5-1.4,1.4-2.5,1.6-.8,1.1.7,1.5-1.2.5-3.6,1-2.8.2-2.9-.2-4.7-1.7-8.7-.2-19.9-5.2-2.7-.1-2.2.7-5.4,3.9-4.6.7-1.2,1.2.4,3.3-.2.3-.2.2-.3.1-.3.1-1.5-.2-.9.1-4.4-3.9-2.4-2.1-.8-1-.6-1.3.1-5.2.2-.6.4-.7.7-.2H662l.5-.1.5-.2.3-.4.1-.4V463l-.1-.7-.1-.4-.1-.5v-1.8l.2-.5.1-.4.4-.4.9-.7,1.9-1,1.2-.4,1.6-.4h.4l.9-.2.2-.6-1.5-7.1-1-1.6-10.1-1.9-1.3-.1-.6.2-.5-.1-.4-.2-1-.6h-.4l-.4.1-.9.1-.7-.1-4.6-1.3-.7-1.1-.2.1h-.3l-.8.3-2-2.2-.1-.4v-.7l.2-.5-.1-1-.3-.5-.4-.3H642l-.3.1-1.1.5-.3.1-.5.1h-.5l-.7-.2-.2-.3-.2-.4-.3-3.4.1-.4.1-.4.3-.2,1.1-.3.3-.3.2-.2.2-.7.1-1.8-1.6-1.9-.2-.6v-.6l.2-.4v-.6l-.2-.3-.3-.3-1.2-.5-.4-.4-.2-.4-.2-.3-.8-4-.1-1.3-.1-3.6v-.5l.1-.5.1-.4.5-1.2.3-1.1.1-1-.1-.8-.3-.7-.4-1-.3-.4-.3-.3-.4.1-1.5.3-1.3.1-1-.2-.9-.2-2.4-.7-7.3-.3-.5-.4,8.9-17.3,1.6-4.1-1.3-2.3-.5-1.3-.1-.4v-1.3l.2-1.4v-1.3l-.2-.3-.2-.3-.3-.3-5.2-1.4-.8-.5-.4-.2-.5-.6-.3-.7-.2-.3-.1-.4-.9-10.8.7-.9.5-1.2,7.1-2.9v-.3l3.3.9,6.8-.4,5.7-.4,14.6-.9,7.5-.4,12.2-.8,7.4-.4,1.4.4,2.4,1.3,1.3.4,1.1-.2,1.7-1.1,1.7-1.1,1.4-1,.4,1.2.3,1,.2.2.4.8,1.3,1.7,1.3,1.7.6,1.4.2,1.5.2,1.4.4.7.4.6.7-.6.7-.3.7.1.7.8.8-1.7,1.2-.1.2,1.6v.2l-.1.7.6.2.1.1-1.3,1-.5.3.5.2.2.4.5.9v2.2l-.3,1.3-.3,1.3-.4,1.2-.4,1.3-.9,2-.7,1-.8,1-1,.7-2,1-.6.4-.1.6.3.3,2.3.5,1.8,1,5.3,5.3,2,1.5,1.9,1.6,2.4,1.2Z" transform="translate(333 759)" fill="#d5d7e3" stroke="#fff" stroke-linecap="round" stroke-linejoin="round" stroke-width="2"/>
    <path id="UZB371" d="M737,453.1l.1-.7.1-1.2.3-.7.1-.5.1-.4-.1-.3-.3-.3-1.1-.6-.2-.3-.2-.3.1-.3.5-.3.3.1.3.1.3.3.1.3h.3l.2-.4.1-2.5v-.7l-.1-.4-.2-.7-.4-1.4-.4-.8-.2-.7-.1-.4v-1.1l.3-.8.9-1.6,2.5-3.3,13.6-2.7,2.7,1.9.4,1.1.1,1.2v1.1l-.5.9-1.3.2-4.3-.6-1.1.3-2.1,1.8-.8.3-1.3-2.4-.9-.7-.7,1.4.1.7,1,.8.2.6-.1,1.5.1.7.3.8,5.1,7.1.2,1.7-2.5,1-1.3-2.1-.9-3.2-1.2-2.6-1.2-.9-.4.6.2,1.4.6,1.7,1.3,2.7-.1,1.1-.7,1.5-.2.1-.6.1-.2.1-.4,1.2v.5l-.1.7-.4.5-.8-.4-1.5-2.5-1-.8-2,1.8-.6-.3Zm25.2-27.9-1.9-1L759,424l-9.4,1.5-1.2.5-2,1.1-1.4.2-3.3-.6-1.3.1-3.3.9v-.1l-.7-1.3.2-.7.2-.5.8-2.9.3-.5.2-.4.3-.4.3-.6-.1-.1h-.2L721,424.5l-13.2-.3-1.6-.3-.3-.2-.3-.6-.2-.6-.3-2.1.2-1.2.2-1.1,6.9-15.8-.2-.9h-.5l-1.1.3-.9.2-.3-.3-.2-.4.4-2.9.1-1.8.1-.4.3-.2.3-.2.8-.1,3.2-.6.7-.8.2-3.1,4.5,2.4,6.8,3.6.2-.4.7-.7h.9l.4-.5.4-.7.5-.3.7.1,2.3,1.1,1.5.3,1.3-.8.3-1-1.1-.6,1.4-2.3.1-.5-.5-.9-.3-.9-.3-1,.1-1-1.5-.3-.5-.3-.5-.6-.4-1.5-.3-3.2-.3-3.2.1-.6.1-.6.4-.4.3-.3.4-.8.1-.8-.2-1.7.1-.8.2.1.6.2.2.2.7-1.8,1.6-1.1,1.2-.6,3,2.7.4.7.2.8.1,1.8.2.6.3.2.5-.4h.2l.2.5.2,1.3.9-.4,1.3.3,1.3.5.9.7.5.7.6,1.3.5.5.4.3,1.5.8.7.5.3.4.6,1.3v.3l-.1.9.1.4.4.3.4.1.4-.1.4.1.8.8.6.9.2,1-.8,1,.9.6.8-.3.8-.5.9-.3.6.3-.3.8-.9,1.5,2.5-.4,1,.1.7,1.9,1.1.9.3.7-.3.6-.9.9v.6l.4.3.6-.4.6-.7.6-.3.5.3.4.5v.5l-1.5.7-.5,1.1-.7,2.7.7-.1.6.1.6.2.5.4-1.1.6.1.6.6.6.4.5.1.6.2.7.1.7-.2.6-.9,1.1-.3.6-.3.7-.2.6-1.2,7,.8,2.1.4.6.1,1.1-.8,3-.3,1.1Z" transform="translate(333 759)" fill="#d5d7e3" stroke="#fff" stroke-linecap="round" stroke-linejoin="round" stroke-width="2"/>
    <path id="UZB372" d="M843.4,333.9l-.7,1.9-.5.9-2.9,3.8-.1.5-.1.5.1.9.1,1.2.2.4.2.3,1.6.2.2.7-.3,1-.2.5-1.1,2.4-.1.4v.6l.2.5.3.6,1.2,1.6,1.2,2,.2,1.7.2,5.7-.5,1.8-.7-.8-2.6-1.1-2.2.6-1.6,8.1-3.2,3.8-4.2,2.6-6,2.4-5.5,4.2-10.7,3.4-1.3.6-1.2,1-2.4,3.1-1.4,1.2-1.5.5-1.8-.6-.8-.7-.6-.8-1-1.8-.7-.8-1.4-1-.7-.6-2.3-3.5-1.3-1.3-1.9-.2-.9-.5-.7-.8-.8-.6-1-.1-1.9.6-.9.5-.9.7-1.4,1.9-.9,2-.4,2.3-.1,2.8.4,4.1-.2,1-.9.5-3.5.3-2.1,1.5v1.6l2.3,3.9h.1l1.2,4.3.6,1.4,1.5,2.7.6,1.5.4,1.7-.5,3.7-1.8.3-2.3-.8-1.5.2.3,2.2,4.2,3.8v1.8l-2.2,1-2.9-.1-5.2-1.5-2-1,.3-1.1.8-3-.1-1.1-.4-.6-.8-2.1,1.2-7,.2-.6.3-.7.3-.6.9-1.1.2-.6-.1-.7-.2-.7-.1-.6-.4-.5-.6-.6-.1-.6,1.1-.6-.5-.4-.6-.2-.6-.1-.7.1.7-2.7.5-1.1,1.5-.7v-.5l-.4-.5-.5-.3-.6.3-.6.7-.6.4-.4-.3v-.6l.9-.9.3-.6-.3-.7-1.1-.9-.7-1.9-1-.1-2.5.4.9-1.5.3-.8-.6-.3-.9.3-.8.5-.8.3-.9-.6.8-1-.2-1-.6-.9-.8-.8-.4-.1-.4.1-.4-.1-.4-.3-.1-.4.1-.9V384l-.6-1.3-.3-.4-.7-.5-1.5-.8-.4-.3-.5-.5-.6-1.3-.5-.7-.9-.7L745,377l-1.3-.3-.9.4-.2-1.3-.2-.5h-.2l-.5.4-.3-.2-.2-.6-.1-1.8-.2-.8-.4-.7-3-2.7,2.3-1,1.2-1.4,1.1-3.1,1.1-3.1.7-.9.9-.9,2-.9,1.9-.9,1.5-2.5.4-.5.3-.5,1.2-.4,2.5-.3,1.1-.5,1-.5,1-.7,1-.7,1-1,.5-.9.4-3.7.5-3.6-.1-1.3-.1-.9-.2-.3-.3-.2-.5-.7-.2-.6.3-.6.5-.4,2.7-1.3,1.1-.3,1,.4.6-1.6,1.5-1.4,1.5-1,1.6-1,1-.3,1.7.7.8-.1,2.3-1.5.8-.2,1.8.3,1.7.3.7-.4-.1-.8-1-1.8-.2-.8.4-1,.4-1,1.5-1.2,3.3-1,3-2.4,2.9-2.3.9-1,.8-.9,1-.8,3.9-1.1,3.9-1.1,3.3-.1,3.2-.2,2.4-1,1.8-2.1.8-1.2.9-.7,1.6-.6,1.6-.6,4.9-3.6.7-.9.7-.8,2-3.5,2-3.4.8-.9,1-.5,1.1-.4.9-.5.8-.8.2-.7.2-.7,1.4-3.2,1.3-1.1,1.2-1.1,5.7-2.4.8.1,1.1.8.9,1,.5,1.1.4,1.4.9.9,1.2.5,1.4.2.9-.4.9-.4,1.2-2.3.6-1.5.5-1.4,1.3-2.6.9-.9.8-1,.6-1.1.5-1.4.8-1.2h1.4l2.7.7,2.2-.3,1.1-.5,1.1-.6,3.9-3.2,1.3-1.2,2.5-2,1.9-.2,1.8.8,8.2,5.8,2,.7-.8,3-2.2,1.5L881,278l-8.2,6.1-2.4.6-2.9-.1-2.3.6-1.1,2.9-.1,4.5-.7,1.3-2,.8-5.8.6-1.8,1.1-5.7,4.9-2.5,3-1.7,3.7-1.4,2.1-1.8,1.1-1.9,1-3.4,2.7-9.4,5.6-1.3,2,1.1,2.5,2.1,1.1,8.2.9.1.1,2.1,1.3,1,.9.9,1.1,1.4,2.7.9.8h1ZM779,342.2l-.6-.7.5-.7-.6-.9-.8-.5.9-1.5-.3-1.3-2.1-1.4-1.8-.2-1.4-1-1.9.1-3.1,3.1-.5,2.4-1.5,3.8.2.1,1-.5.1.9.4.9,1.4,1.6,1-.9v.3l-.3.7.7,1.3,1.7.5,1.9-2.3,2.9-2.7,2.2-1.1Z" transform="translate(333 759)" fill="#d5d7e3" stroke="#fff" stroke-linecap="round" stroke-linejoin="round" stroke-width="2"/>
    <path id="UZB4828" d="M779,342.2l-2.2,1.1-2.9,2.7-1.9,2.3-1.7-.5-.7-1.3.3-.7v-.3l-1,.9-1.4-1.6-.4-.9-.1-.9-1,.5-.2-.1,1.5-3.8.5-2.4,3.1-3.1,1.9-.1,1.4,1,1.8.2,2.1,1.4.3,1.3-.9,1.5.8.5.6.9-.5.7.6.7Z" transform="translate(333 759)" fill="#d5d7e3" stroke="#fff" stroke-linecap="round" stroke-linejoin="round" stroke-width="2"/>
  </g>
</svg>
