<svg xmlns="http://www.w3.org/2000/svg" width="18.5" height="14.521" viewBox="0 0 18.5 14.521">
  <g id="bookmark" transform="translate(0.25 -42.416)">
    <g id="Сгруппировать_26" data-name="Сгруппировать 26" transform="translate(0 42.666)">
      <path id="Контур_415" data-name="Контур 415" d="M16.5,44.068H8.78l-1.39-1.3a.388.388,0,0,0-.265-.1H1.5a1.455,1.455,0,0,0-1.5,1.4V55.285a1.455,1.455,0,0,0,1.5,1.4h15a1.455,1.455,0,0,0,1.5-1.4V45.47A1.455,1.455,0,0,0,16.5,44.068Zm-5.25.7H13.5V48.48l-.86-.8a.394.394,0,0,0-.53,0l-.86.8Zm6,10.516a.727.727,0,0,1-.75.7H1.5a.727.727,0,0,1-.75-.7V44.068a.727.727,0,0,1,.75-.7H6.97l1.39,1.3a.388.388,0,0,0,.265.1H10.5v4.557a.351.351,0,0,0,.231.324.393.393,0,0,0,.409-.076l1.235-1.154,1.235,1.154a.4.4,0,0,0,.409.076.351.351,0,0,0,.231-.324V44.769H16.5a.727.727,0,0,1,.75.7v9.815Z" transform="translate(0 -42.666)" fill="#bbc5d5" stroke="#bbc5d5" stroke-width="0.5"/>
    </g>
  </g>
</svg>
