<svg xmlns="http://www.w3.org/2000/svg" width="18.553" height="23.479" viewBox="0 0 18.553 23.479">
  <g id="clipboard" transform="translate(-46.787 0.251)" style="isolation: isolate">
    <g id="Сгруппировать_25" data-name="Сгруппировать 25" transform="translate(47.037 0)">
      <g id="Сгруппировать_24" data-name="Сгруппировать 24" transform="translate(0 0)">
        <path id="Контур_408" data-name="Контур 408" d="M62.792,3.011H60.713v-.93c0-.3-.328-.438-.629-.438H58.471A2.447,2.447,0,0,0,56.036,0,2.489,2.489,0,0,0,53.6,1.643H52.015c-.3,0-.6.137-.6.438v.93H49.335a2.325,2.325,0,0,0-2.3,2.216V20.9a2.2,2.2,0,0,0,2.3,2.079H62.792a2.2,2.2,0,0,0,2.3-2.079V5.226A2.325,2.325,0,0,0,62.792,3.011ZM52.508,2.737h1.5a.6.6,0,0,0,.52-.492,1.586,1.586,0,0,1,1.5-1.231,1.559,1.559,0,0,1,1.477,1.231.6.6,0,0,0,.547.492h1.559V4.925H52.508ZM64,20.9a1.11,1.11,0,0,1-1.2.985H49.335a1.11,1.11,0,0,1-1.2-.985V5.226a1.231,1.231,0,0,1,1.2-1.121h2.079V5.5a.574.574,0,0,0,.6.52h8.069a.6.6,0,0,0,.629-.52V4.1h2.079A1.231,1.231,0,0,1,64,5.226V20.9Z" transform="translate(-47.037 0)" fill="#bbc5d5" stroke="#bbc5d5" stroke-width="0.5"/>
        <path id="Контур_409" data-name="Контур 409" d="M103.561,230.482a.547.547,0,0,0-.766-.027l-1.751,1.668-.739-.766a.547.547,0,0,0-.766-.027.574.574,0,0,0,0,.793l1.121,1.149a.492.492,0,0,0,.383.164.547.547,0,0,0,.383-.164l2.134-2.024a.52.52,0,0,0,.032-.734C103.582,230.5,103.572,230.492,103.561,230.482Z" transform="translate(-96.64 -218.253)" fill="#bbc5d5" stroke="#bbc5d5" stroke-width="0.5"/>
        <path id="Контур_410" data-name="Контур 410" d="M205.386,256.034H199.1a.547.547,0,0,0,0,1.094h6.291a.547.547,0,1,0,0-1.094Z" transform="translate(-190.616 -242.629)" fill="#bbc5d5" stroke="#bbc5d5" stroke-width="0.5"/>
        <path id="Контур_411" data-name="Контур 411" d="M103.561,146.89a.547.547,0,0,0-.766-.027l-1.751,1.669-.739-.766a.547.547,0,0,0-.766-.027.574.574,0,0,0,0,.793l1.121,1.149a.492.492,0,0,0,.383.164.547.547,0,0,0,.383-.164l2.134-2.024a.52.52,0,0,0,.032-.734C103.582,146.911,103.572,146.9,103.561,146.89Z" transform="translate(-96.64 -139.038)" fill="#bbc5d5" stroke="#bbc5d5" stroke-width="0.5"/>
        <path id="Контур_412" data-name="Контур 412" d="M205.386,172.442H199.1a.547.547,0,0,0,0,1.094h6.291a.547.547,0,0,0,0-1.094Z" transform="translate(-190.616 -163.414)" fill="#bbc5d5" stroke="#bbc5d5" stroke-width="0.5"/>
        <path id="Контур_413" data-name="Контур 413" d="M103.561,314.073a.547.547,0,0,0-.766-.027l-1.751,1.668-.739-.766a.547.547,0,0,0-.766-.027.574.574,0,0,0,0,.793l1.121,1.149a.492.492,0,0,0,.383.164.547.547,0,0,0,.383-.164l2.134-2.024a.52.52,0,0,0,.032-.734C103.582,314.094,103.572,314.083,103.561,314.073Z" transform="translate(-96.64 -297.468)" fill="#bbc5d5" stroke="#bbc5d5" stroke-width="0.5"/>
        <path id="Контур_414" data-name="Контур 414" d="M205.386,339.626H199.1a.547.547,0,1,0,0,1.094h6.291a.547.547,0,1,0,0-1.094Z" transform="translate(-190.616 -321.845)" fill="#bbc5d5" stroke="#bbc5d5" stroke-width="0.5"/>
      </g>
    </g>
  </g>
</svg>
