<svg id="user" xmlns="http://www.w3.org/2000/svg" width="12.72" height="16.96" viewBox="0 0 12.72 16.96">
  <path id="Контур_598" data-name="Контур 598" d="M10.24,8.48A4.24,4.24,0,1,0,6,4.24a4.24,4.24,0,0,0,4.24,4.24Zm0-7.067A2.827,2.827,0,1,1,7.413,4.24,2.827,2.827,0,0,1,10.24,1.413Z" transform="translate(-3.88 0)" fill="#bbc5d5"/>
  <path id="Контур_599" data-name="Контур 599" d="M9.36,14A6.367,6.367,0,0,0,3,20.36a.707.707,0,0,0,1.413,0,4.947,4.947,0,0,1,9.894,0,.707.707,0,0,0,1.413,0A6.367,6.367,0,0,0,9.36,14Z" transform="translate(-3 -4.107)" fill="#bbc5d5"/>
</svg>
