<svg xmlns="http://www.w3.org/2000/svg" width="62" height="88.4" viewBox="0 0 62 88.4">
  <path id="UZB371" d="M737,453.1l.1-.7.1-1.2.3-.7.1-.5.1-.4-.1-.3-.3-.3-1.1-.6-.2-.3-.2-.3.1-.3.5-.3.3.1.3.1.3.3.1.3h.3l.2-.4.1-2.5v-.7l-.1-.4-.2-.7-.4-1.4-.4-.8-.2-.7-.1-.4v-1.1l.3-.8.9-1.6,2.5-3.3,13.6-2.7,2.7,1.9.4,1.1.1,1.2v1.1l-.5.9-1.3.2-4.3-.6-1.1.3-2.1,1.8-.8.3-1.3-2.4-.9-.7-.7,1.4.1.7,1,.8.2.6-.1,1.5.1.7.3.8,5.1,7.1.2,1.7-2.5,1-1.3-2.1-.9-3.2-1.2-2.6-1.2-.9-.4.6.2,1.4.6,1.7,1.3,2.7-.1,1.1-.7,1.5-.2.1-.6.1-.2.1-.4,1.2v.5l-.1.7-.4.5-.8-.4-1.5-2.5-1-.8-2,1.8-.6-.3Zm25.2-27.9-1.9-1L759,424l-9.4,1.5-1.2.5-2,1.1-1.4.2-3.3-.6-1.3.1-3.3.9v-.1l-.7-1.3.2-.7.2-.5.8-2.9.3-.5.2-.4.3-.4.3-.6-.1-.1h-.2L721,424.5l-13.2-.3-1.6-.3-.3-.2-.3-.6-.2-.6-.3-2.1.2-1.2.2-1.1,6.9-15.8-.2-.9h-.5l-1.1.3-.9.2-.3-.3-.2-.4.4-2.9.1-1.8.1-.4.3-.2.3-.2.8-.1,3.2-.6.7-.8.2-3.1,4.5,2.4,6.8,3.6.2-.4.7-.7h.9l.4-.5.4-.7.5-.3.7.1,2.3,1.1,1.5.3,1.3-.8.3-1-1.1-.6,1.4-2.3.1-.5-.5-.9-.3-.9-.3-1,.1-1-1.5-.3-.5-.3-.5-.6-.4-1.5-.3-3.2-.3-3.2.1-.6.1-.6.4-.4.3-.3.4-.8.1-.8-.2-1.7.1-.8.2.1.6.2.2.2.7-1.8,1.6-1.1,1.2-.6,3,2.7.4.7.2.8.1,1.8.2.6.3.2.5-.4h.2l.2.5.2,1.3.9-.4,1.3.3,1.3.5.9.7.5.7.6,1.3.5.5.4.3,1.5.8.7.5.3.4.6,1.3v.3l-.1.9.1.4.4.3.4.1.4-.1.4.1.8.8.6.9.2,1-.8,1,.9.6.8-.3.8-.5.9-.3.6.3-.3.8-.9,1.5,2.5-.4,1,.1.7,1.9,1.1.9.3.7-.3.6-.9.9v.6l.4.3.6-.4.6-.7.6-.3.5.3.4.5v.5l-1.5.7-.5,1.1-.7,2.7.7-.1.6.1.6.2.5.4-1.1.6.1.6.6.6.4.5.1.6.2.7.1.7-.2.6-.9,1.1-.3.6-.3.7-.2.6-1.2,7,.8,2.1.4.6.1,1.1-.8,3-.3,1.1Z" transform="translate(-704.1 -367.9)" fill="#d5d7e3" stroke="#fff" stroke-linecap="round" stroke-linejoin="round" stroke-width="2"/>
</svg>
