<svg xmlns="http://www.w3.org/2000/svg" width="123" height="132.9" viewBox="0 0 123 132.9">
  <path id="UZB370" d="M715.3,391.1l-.2,3.1-.7.8-3.2.6-.8.1-.3.2-.3.2-.1.4-.1,1.8-.4,2.9.2.4.3.3.9-.2,1.1-.3h.5l.2.9-6.9,15.8-.2,1.1-.2,1.2.3,2.1.2.6.3.6.3.2,1.6.3,13.2.3,17.4-4.3h.2l.1.1-.3.6-.3.4-.2.4-.3.5-.8,2.9-.2.5-.2.7.7,1.3v.1l-2.3.6-1.2.9,1.5,1.6,2.6,1.7,2,.8.6-.1-2.5,3.3-.9,1.6-.3.8V440l.1.4.2.7.4.8.4,1.4.2.7.1.4v.7l-.1,2.5-.2.4h-.3l-.1-.3-.3-.3-.3-.1-.3-.1-.5.3-.1.3.2.3.2.3,1.1.6.3.3.1.3-.1.4-.1.5-.3.7-.1,1.2-.1.7h-.2l-.6-.1-.6,1.7-.6,12.2-.3,1.8-.8,1.5-1.4,1.4-2.5,1.6-.8,1.1.7,1.5-1.2.5-3.6,1-2.8.2-2.9-.2-4.7-1.7-8.7-.2-19.9-5.2-2.7-.1-2.2.7-5.4,3.9-4.6.7-1.2,1.2.4,3.3-.2.3-.2.2-.3.1-.3.1-1.5-.2-.9.1-4.4-3.9-2.4-2.1-.8-1-.6-1.3.1-5.2.2-.6.4-.7.7-.2H662l.5-.1.5-.2.3-.4.1-.4V463l-.1-.7-.1-.4-.1-.5v-1.8l.2-.5.1-.4.4-.4.9-.7,1.9-1,1.2-.4,1.6-.4h.4l.9-.2.2-.6-1.5-7.1-1-1.6-10.1-1.9-1.3-.1-.6.2-.5-.1-.4-.2-1-.6h-.4l-.4.1-.9.1-.7-.1-4.6-1.3-.7-1.1-.2.1h-.3l-.8.3-2-2.2-.1-.4v-.7l.2-.5-.1-1-.3-.5-.4-.3H642l-.3.1-1.1.5-.3.1-.5.1h-.5l-.7-.2-.2-.3-.2-.4-.3-3.4.1-.4.1-.4.3-.2,1.1-.3.3-.3.2-.2.2-.7.1-1.8-1.6-1.9-.2-.6v-.6l.2-.4v-.6l-.2-.3-.3-.3-1.2-.5-.4-.4-.2-.4-.2-.3-.8-4-.1-1.3-.1-3.6v-.5l.1-.5.1-.4.5-1.2.3-1.1.1-1-.1-.8-.3-.7-.4-1-.3-.4-.3-.3-.4.1-1.5.3-1.3.1-1-.2-.9-.2-2.4-.7-7.3-.3-.5-.4,8.9-17.3,1.6-4.1-1.3-2.3-.5-1.3-.1-.4v-1.3l.2-1.4v-1.3l-.2-.3-.2-.3-.3-.3-5.2-1.4-.8-.5-.4-.2-.5-.6-.3-.7-.2-.3-.1-.4-.9-10.8.7-.9.5-1.2,7.1-2.9v-.3l3.3.9,6.8-.4,5.7-.4,14.6-.9,7.5-.4,12.2-.8,7.4-.4,1.4.4,2.4,1.3,1.3.4,1.1-.2,1.7-1.1,1.7-1.1,1.4-1,.4,1.2.3,1,.2.2.4.8,1.3,1.7,1.3,1.7.6,1.4.2,1.5.2,1.4.4.7.4.6.7-.6.7-.3.7.1.7.8.8-1.7,1.2-.1.2,1.6v.2l-.1.7.6.2.1.1-1.3,1-.5.3.5.2.2.4.5.9v2.2l-.3,1.3-.3,1.3-.4,1.2-.4,1.3-.9,2-.7,1-.8,1-1,.7-2,1-.6.4-.1.6.3.3,2.3.5,1.8,1,5.3,5.3,2,1.5,1.9,1.6,2.4,1.2Z" transform="translate(-618.3 -348.7)" fill="#d5d7e3" stroke="#fff" stroke-linecap="round" stroke-linejoin="round" stroke-width="2"/>
</svg>
