<svg xmlns="http://www.w3.org/2000/svg" width="379.5" height="367.3" viewBox="0 0 379.5 367.3">
  <path id="UZB356" d="M352.7,170.4l6.3,10.7,2.9,2.7,15.7,4.3.9.5v.8l-.4,1-15.8,29.9L347.4,249l-3.2,7.5-1.3,16.3v.9l.2.8,6.6,12.2,1.2,2.5-.3.4-.7.7-12.5,7.1-1.2,1.1v1l.5,1.1,24.9,34.3,16.5,23V359L365,365.3l-3.1,1-.8-.3-.8-.5-.3-.2-6.9-11.1-9.9-11-3.4-2.6-2.7-1.6-2.8-1.2-11.1-2.7h-3.1l-1.2.3-1,.5-.9.7-1,1.1-2.3,4.5-1,.8-1.5.1-1.3-.5-.4-.3-.9-.4-.7-2.3-.7-1.1-3.1-3.4-1.1-.7-3.4-.6-1.3-.5-1.8-1.7-2.1-2.3-.6-.5-.8-.3-1.5-.3-13.7-12.5-1.9-2.1-1.5-2.7-1-3-.6-1.3-1-.6h-2.7l-1.3-.3-1-.7-.8-1.1-1.6-2.9-.7-2-1.5-2.4-.5-1.3v-3.5l-.2-1.6-.8-.7-2.9-.3-2.9-.7-.6-.4-1.2-.9-1,.1-.3.2-1.1,1-3,2.1-1.2.5-1.6.1-.9.2-.4.3-.2.3.1.4.2.3.6,1.4.1.8-.6,1.8-.7.7-1.4-2-1.7-1.5-6.1-2.3-3,.1-.8-.4-.7-1.1.1-1,.7-.8,1-.3h.1l3.4-1.3-.2-3.1-1.1-3.9.5-3.6,1-.7,1.2-.5.9-.7.2-1.3-.7-1-1.3-.8-2.6-1-2.1-1.9-1.6-2.5-1.8-2-2.6-.3-2.6.3-5.1-.5-12.3,1.9-3-.1-1.4-.5-2.3-2.5-1.4-.5-3-.3-1.6-1-.8-1.4-.7-6-.5-1.5-.9-1.3-3.7-3.9-1.4-.9-1.4.2-1.7.8-1.7.5-1.7.1-2.6-.5-4.1-1.8-3.9-3.7-12.5-14.7-1.4-.9-1.1,1.8-.8,6.7-1.2,2.3-2.4.8-3-.2-3-.7-6.2-2.6h-1.5l-1,.3-3.1,1.9-2.2,1-1.1.8-.5,1.1.3,1.6,1.1.9,7.3,3.5,2,1.6,1.8,2.7,1.6,3.7,4.3,7,2.3,2.8.7.6.3.7-.3.7-.7.4-3.7.6-1-.3-.6-1v-1.2l.3-1.4.2-1.4-.6-2.8-1.5-2-2-1.5-5.7-2.7-1.3-.3-1.1.2-2.1.9-.9.1-1-.5-1.3-2-.8-.8-1.1-.4-1.3-.1-1.3.3-1.1.5-.6.7-.5,1-1.5,1.7-1.6.7-1,.8.4,2.1,1.2,2.7.1,1.2-.5,1.9-2.4,5.4-.8.9-2.2.8-.5,1,.4,1.2.8.9.1.7-1.2.9-1.2.3-3.9-.2-1.1.3-3.3,1.6-1.3.2-.4-3.3-.5-2-.8-1.6-1.1-1.3-1.4-1.1-3.1-1.7-2.5-.3-.6-.2-.6-.5-.8-.6-1.2-1.9-.7-.6-1-.2-1.5.1-3.3,1.1L75.9,263l-1.5,1.4-.6.6L72,268.8l-7.3,22.9-.2,1.2v.4l-5.2,2.5-1.7,2.3v3l1.3,6.1-.2,3-.4,2.5-.1,2.4,1.1,2.8,1.3,2.1.6,2.1.2,2.2V327l.3,2.2.7,2.1,1.2,2,1.2,1.4.9.6.8.4,3,.7.4.4-.1.5-.7.8-1.2.9-2.7,1.3L64,341.7l-1.8,3.2-1.1.7L54,344.1,48.5,343l-13-.8-14.1-.7-10.8-.6-9.4-.5-.1-35.7V159.5L1,141.1V47.6l.2-.1,5.4-1.8L12,44l5.5-1.8,10.9-3.5,5.4-1.8,5.5-1.7,5.4-1.8,10.9-3.5,5.5-1.7,5.4-1.8L72,24.7l5.4-1.8,10.9-3.5,7.3-2.3,7.2-2.2,7.3-2.2,7.3-2.3,3.3-1,3.4-1,6.7-2,3.5-1,7-2,3.5-1L149.5,1l1.4.1,1.6.7.5.4-.1.1L152,4.7l-.2,1.5-.3.9-.8,1.7-.2,1v2.3l-.2.6-.2.2-.5.3-.2.2-.2.3-.5,1.5-2.1,2.9-.3.5-.1.2-.6.6-2.7,3.8-.3.6-.1.6-.2,2.1-.7,2.2-.8,1.7-.3,1.3-.3,2.6-.3,1.3-.5,1.3-.6,1.2-.4.5-.8.8-.4.5-.2.6-.1.6-.2,1.2-.2,1.2L132.6,53l-.5,3.7-.2,2.4.1,2.4,1.2,3.5,1.2,3.1,1.6,2.6,1,3.6-.1,1.9-.4,1.3-.5,1.2-1.2.8-1.4,2-.3,1.4-.4.8-.3.6-.1.7.4,3,1,3.3,1.5,1.4,1.1,1.2,2.3.4,2.8-.2,2.9-1.6,3-2.5,2.6-2.4,1.7-2.2.9-1.4.7-1.3,1.2-1.4,1.4-2,1.3-2.2,1-1.5,1-1.4.3-1-.8-1.5-1.2-.5-1.4-.6.8,1.9-1,.3-1.4-.4-.6-1,.6-3.1.7-1.4.4-1,1.2-.4.8-.4,1.2.4.3,1.6.3,1,.8.8,1.2.3,1.9-.5,1-1.2-.3-1.6-1.3-1.2-.7-1.2.6-2.1.1-2.6-.7-2.7-.5-2.4V52l1.2-.3,1.6-.3.8-1.8.3-2,.5-1.5.4-2.4-1.3-.8-1.3,1-1,2-2.2,1.3-1.4.2-1.5,1.2-1.7-1.2-.1-1.9.7-2,1-2.3.9-2,1.8-2,.9-1.7,1.6-1.6,1.7-1.7,1.3-.6-2.7-2-1.5-1.9-1.3-5.1-.5-3.3-.2-2.2.2-2.5.8-2.9.9-2.4.5-1.2,5.7,3.9,7.4,5,5.1,3.4,13.7,9.4,8.9,5.9-.2.4L201,38l-.8,1.6-1.1,3.7-.9,2.4-1.7,2.9-1.3,1.6-.6,2.9-.7,2.8L193,58l-1,1.8-2,2.7-.9,2-.7,2-.4,2,.7,4.1,1.5,3.5,1.8,2.4,4.8,5.5,7.2,7.2,3.8,3.7,3,2.2,3,2.4.7.7.2,1.1-.3,2.3-1.2,1.8-2.7,1.8-.9,2.4-1,2.4-1.3,2.4.9,2.2,2.9.5,2.6-.2,2.3-.7,1.5-1.4,2.1-.2,2.3.4,2.2-.8,2.4-1.6,3.3-2.2,1.5-2,.3-1-.8-.9-1.1-.1-1-.4-.6-.6-.2-.7v-.9l.3-.6.4-1,.7-.6.5-.6h1l1.5.1,1.6.3,1.1-.3.9-.9.4-1.1.8-2.7.4-2.6-.3-2.6-.7-4.3-1-3.3-1.3-2.7-.4-2.6-.1-2.2,1-1.4,1-.8,1.1-1.3.8-1.8.5-2.3v-3l.1-3.9v-2l1.1.8,11.3,7.5,10.6,7.2,9.8,6.4,8.4,5.7,12.1,8,3.6,2.4,1.5,1.7,1,2.2.4,1.9.4,4.2.6,1.9,3.4,5.5,6.6,7.3,3.2,3.4,3.2,3.5,4.1,4.7,3.3,3.8,6.7,7.8,3.3,3.8,3.3,3.8,3.3,3.8,6.5,7.5,4.4,5,2.3,1h.1Z" transform="translate(0 0)" fill="#d5d7e3" stroke="#fff" stroke-linecap="round" stroke-linejoin="round" stroke-width="2"/>
</svg>
