<svg xmlns="http://www.w3.org/2000/svg" width="110.9" height="70.7" viewBox="0 0 110.9 70.7">
  <path id="UZB364" d="M918.1,449l-.9.2-1.4-.5-1.2-.5-1.2-.9-.6-1.1,1-1.2h1.4l1-.5,2.1-1.6,1.5-.5.2.8-1.3,4.9-.6.9ZM884,438.4l.4.1.3-.2.6-.5.4-.2,1.4-.4.8.2.4.7-.4,1.2-2.7,1.9-.9.9.1,2,2.6,2.7-.1,2.4-.7.9-.8.3h-1.9l-2.8.8-.8-.1-.7-.7-.1-.8-.3-.6-1.1-.1-.7.5-.8.8-.8.5-.7-.4-.1-1.9,2.5-3.9-.3-2.3-.7-.5-1.5-.3-.8-.4-.6-1-1.5-3.1-.3-1.3.1-1.2.3-1.4,1-2.3,1.8-1,1.3.8,1,1.8.8,2.1,1,1.3,1.6,1,3.2,1.4.2.2Zm23.9-55.8,1.8,2.6,1.2,2.4.6.9.3.1.1-1.3.3-.3h.6l1.6.9.8.2.5.1.3-.2.7-.1.9.1,3,1,.7.4.5.5.5.9,2.3,3.2.5.3.5.2,1.4.2,1.2-.2,1.6-.1,2.8.9,3.5.7,1-.1.6-.8.6-.5.8.6,1.1,1.7.4.3.7.1,3,.9.8.7.1.4v1.4l-.2,1.4-.2,1.4.1,1,.5,1.8.1.4-2.6.1-1,.2-3.9,2.2-.5.8-.4,1.4-.8,2.1-1.5,1.6-5.1,2.5-.3,1.1.4,1.2,1.1.7,1.7.8.8.6.3.6-.4.8-.8.2-.9-.1-.7-.3-.4-.1h-.4l-.7.2-2.2-.2-2.3-.5-2.2.1-1.8,1.8-1,2.4-.7,1.1-.9.9-3.1,1.8-.8.2-1.2-.5-.3-1.2v-3.1l-.4-1.5-.8-1.7-1.1-.9-1,.9-.4,1.5-.1,1.3-.5.9-1.4.1-2.8-.5-1.3-.6-1.2-.7-1.1-1.1-.5-1.1-.5-.9-2.6-.8-1.8-1.7-1.2-.1-1.8.2-1-.1-.8-.4-.6-.7-.5-.8-.6-.4-.8.2-1,1.4-.5,1.7-.8,1.3-1.8.2-6.8-1-3.4.6-2.1,2.1-1.2-.1-5.1.5-8.3,2.5-2.5.2-2.4-.1-2.4-1.7-1-3.2L848,418l-1.5-2.5-1.3-.5-1.1.1-1.1.3-1.3.1-1.2-.3-2.9-1.3.8-2.7-.2-.3-.5-.6-.1-.1-.7-1.1-.1-.2-.1-.4-.1-1.6.9-1.5,1.7-1.1,4-.9.6-.3.6-.7,1.4-2.4.8-.8.8-.4.8-.2.9-.4.7-.7,2.1-2.5,3.5-2.9.9-.8.8-.7.5-.2,1-.2.2-.3.1-.4.2-.3.9-.6,1.5-.9.6-.8.5-.7.7-.7.9-.5.8-.1,1.6.2.8-.1,2.7-2.5h1.2l.9.4.5.3.4.4,1.8.2,6.6-.3-3.7,5,.3.4,2.3.2.4.2,1.7,1.8.4.2.6.2,1.1.2.6.2,1.2,1,2.7,1.5.8.2,1.3-.2,3.8-3.6,1.8-2.9,1.2-.9,5.1-2.8,4.8-1.6Z" transform="translate(-835.6 -381.5)" fill="#d5d7e3" stroke="#fff" stroke-linecap="round" stroke-linejoin="round" stroke-width="2"/>
</svg>
