<svg xmlns="http://www.w3.org/2000/svg" width="110.5" height="136.3" viewBox="0 0 110.5 136.3">
  <path id="UZB362" d="M620.5,593.7l1.8-1.1.9-1.8.3-1,.3-2.9.3-1.2.5-.7,7.1-6.6.4-.8.4-.9.3-.9.3-.8.6-1.5.9-1.5.5-.7.5-.3,2.1-.4.7-.2,3.3-1.8,6.4-5.2.8-.8.1-.4.5-1.8.6-3.8.3-1.2.4-1,.3-.5,2.2-1.8,1-1.1.7-1.1.4-1,2.3-.6.9-.5.6-.4,1-1.1.6-.8,3.5-6.8.3-.3.4-.4.5-.4.8-.4.8-.2h.8l.9.1.9.2.4.2.3.2.2.2,1.1,1.1.3.2.4.1.2-.3.1-.3v-1.3l.1-.6.3-.6.6-.9.3-.6.2-.6v-.4l-.1-.4-.1-.8-.2-.3v-.4l-.1-.4V531l.1-.4v-.4l.1-.5.1-.4v-.5l-.1-.4-.1-.3-1.4-2.5-.3-2.7-.5-1.8v-.6l.2-.5.3-.6.5-.4.3-.3.4-.2.6-.3.8-.2,4.2-.2,1-.4.9-.7,1,1,7.4,1.3,1.6-.1,4.4-1.5.8-.4.8-.2h.9l.9.4.5.2.9.9.9.2,1-.4,1-.7.4-.1h1l.5.1.9,1.1,1.9,4.4,1.7,2.5.6,1.5-.1,1.6-.5,1.3-.7,1-.9.8-1,.5-1.4.3h-1l-.6.4-.2,1.6.1.8.4.6.2.7v.9l-.3.4-1.5,1.1L702,540l.1,1.3.8,2.8.1,1.5-.2,4.3.2,1.6.4,1,1.4,2.2.4,1.1.1,2.4.2,1,.5,1.1,2.3,2.2,2.2,3.9,1,1.1,3,1.7,4.6,4.1,1.4,2.2.2,2.9-.9,4.3-1.4,4.1-2.3,3.5-.7,1.4-.5,1.2-.2,1.2-.5.9-.9.7-.9.2-2.7.4-1.8.6-1,1.1-2.5,7.5-1.7,3.4-4.2,5.9-3.2,3-3,3.8-2.4,4.3-1.7,4.5-.2,3.1,1.2,5.8.2,3.1-.3,2.6-.7,2.5-1.1,2.2-.3,1-.2-1.3-.7-1-1-.6-1.2-.3-2.1.1-.8-.1-.6-.4-1.3-.9-.6-.2-.7.1-1.1.3-.6.1-.4.3-.3.7-.5.7-.6.3-1-.9-1.1-3-1.3-.7-1.2.4-1.1.8-1.9,1.9-1.1.9-1.2.6-1.3.3-1.4.2-1.5.3-2.2,1.4-1.3.3-1.3-.5-.6-1.1-.5-1.4-.5-1.3-1.2-1-2.6-1-1.2-.8-.5-1.1-1-3.2-.7-.6-1.2-.4-2.3-1.6-1.1-.6h-2.8l-5.3,1.2-7.6.4-.6.2-1.2,1-.6.2h-1.6l-.7-.2-3.8-1.6-1.4-.2-1.5.2-1.1.3-1.5-1.1.1-1.3.9-1.3,1.1-1.1.9-1.5-.2-1.2-.9-1-1.2-1-.8-2,.3-2.7,1.2-4.9.2-2.9-.4-5.8.2-2.9,2-3.6,3.3-4.2,2.1-4.2-.6-1.5Z" transform="translate(-611.2 -515.7)" fill="#d5d7e3" stroke="#fff" stroke-linecap="round" stroke-linejoin="round" stroke-width="2"/>
</svg>
