<svg xmlns="http://www.w3.org/2000/svg" width="187.1" height="196.3" viewBox="0 0 187.1 196.3">
  <path id="UZB354" d="M533.4,482.1l-2.7,2.1-5.8,5.8-.7.6-.7.3-.6-.1-.7.1-.4.2-.4.3-4.4,4.8-.5.8-.4.6-.1.4v.4l.1.4.1.3.3.7.4.6,1.8,2.3.2.3.2.3v.5l-.1.6-.3.3-.3.2-9.7,3.5-3.1,1.1-8,3.3-2.7,1.8-5.3,5.9-.9.9-1.8-2.3-1.4-.8-1.7.2-4.5,2.2-1.5.4-1.7-.4-1.8-.9-9.3-6.7-8.1-5.8-6.5-4.6-3.5-3.7-6.2-8.7-3.7-3.6-8.1-5.7-19.2-13.7-9.4-6.8-7.9-5.7-6.8-4.8-3.4-3.4-.6-.4-4.2-5.3-.6-2-1-4.3-.2-1.7.2-1.6.5-1.4.3-1.4-.2-1.6-1.8-3.9-.2-1.6v-2l-.3-1.5-.4-1.4-1.5-3-.4-1.4-.2-3.2-.5-.7-4.8-2.8-2.8-.8-1.3-1-.2-.5L374.1,388l3-6.5-.7-2.6-1.9-2.9L365,365.3l13.1-6.3v-1.1l-16.5-23,20.6-7.8,4.9.1,1.8,4.3,1.5,2.5,9.7,11.6,7.9,13.9,1.4.8,5.1,1.1,7.6,3,9,5.1,17.5,10.8,1.3,2.3,2.1,2.1-.1,1.5,7-2.4,4.1-6.2,3.5-7.2,1-1.5,1.1-1,1.2-.4,1.1.3,1.1,1,1.2,1.8.3,2.6.1,5,.8,1.7,2.5.9,15.7,1.9,1.3-1.3,1.8-6.8,1.1-.6,2-.8,7.7-.3,2.5-.5,1.9-.8,1.8-2.7.7.1.5,1.8,1.3,7.8.5,2,.8,2.3,2,1.6,2,1.2,5.8,1.4,17.6,1.2,2.8-.8-1.4,4.8-.3,1.9-.1,2v1.9l.1,1.6.3.9-.1.9-.8-.1-3-.6-.6-.1-.5.2-.5.4-.6,1-.1.9-1.6,4.9-1.3,1.5-1,1-1.3,4.2-.7,1.3-6.8-.1-1.3-.4-1.3-.9-1.1-1-1.2-.3h-1.3l-2,.3-1,.6-.5.6-.2.7-.1.8v.6l.3,1.5,1.5,1.5-1,2.8-.5.5-.3.1v.2l.1.3.6,1.1,1.7,1.7.9,1.2.3.5-.1.2-1.7.2-.4.1-.4.3-.4.3-.6.1-.8.7-2.8,5.6L512,437l-1,1-1.1.8-3.5,1.6-.5,1-.4.5-.2.3-1.9,2.4-1,2.1-.8,1.9.9,1.9,4.2,5.9,1.7,1.1,2.7,1.5.1.4.3.7.2.6.8.5h1.1l2.5-1.1.9.1.5.9,7,3.3,1,1.7.5,1.7v1.3l.2,1.6.5,1.6,1.1.6,1.4.5.9.5,1,1.1.9,1.2.3.5.3.8.6,2,.1.5.1,2.1Z" transform="translate(-360.6 -326.1)" fill="#d5d7e3" stroke="#fff" stroke-linecap="round" stroke-linejoin="round" stroke-width="2"/>
</svg>
