<svg xmlns="http://www.w3.org/2000/svg" width="194.4" height="120.5" viewBox="0 0 194.4 120.5">
  <path id="UZB361" d="M662.5,495.2l-.4.4-.3.3-.1.5-.1,1.1.4,3,1.6,1.5,7.1,2.5,4.7.2,2.3.9.2.3.5.9.3.3.4.1,1-.2.4.1.5.9.1,1-.7,5.8.3,1.9h.1l-.9.7-1,.4-4.2.2-.8.2-.6.3-.4.2-.3.3-.5.4-.3.6-.2.5v.6l.5,1.8.3,2.7,1.4,2.5.1.3.1.4v.5l-.1.4-.1.5v.4l-.1.4v.4l.1.4v.4l.2.3.1.8.1.4v.4l-.2.6-.3.6-.6.9-.3.6-.1.6v1.3l-.1.3-.2.3-.4-.1-.3-.2-1.1-1.1-.2-.2-.3-.2-.4-.2-.9-.2-.9-.1h-.8l-.8.2-.8.4-.5.4-.4.4-.3.3-3.5,6.8-.6.8-1,1.1-.6.4-.9.5-2.3.6-.4,1-.7,1.1-1,1.1-2.2,1.8-.3.5-.4,1-.3,1.2-.6,3.8-.5,1.8-.1.4-.8.8-6.4,5.2-3.3,1.8-.7.2-2.1.4-.5.3-.5.7-.9,1.5-.6,1.5-.3.8-.3.9-.4.9-.4.8-7.1,6.6-.5.7-.3,1.2-.3,2.9-.3,1-.9,1.8-1.8,1.1-.7-2-1.9-1.4-2.1-1.1-2.3-.6h-4.4l-1.8-.5-5.9-2.8-2.7-3.4-1.7-1.7-1.9-.8-3.8-1.1-3.6-2.9-1.6-.9-3.9-.6-5.8-2.8-2-.2-1.6.7-2.8,2.2-1.5.9-4,.3-3.9-1.3-9.6-6.5-5.8-3.9-7.8-5.3-5.5-5.1-7.8-7-3.9-2.5-8.5-3-7.5-4.3L492,525.7l-3.3-4.3.9-.9,5.3-5.9,2.7-1.8,8-3.3,3.1-1.1,9.7-3.5.3-.2.3-.3.1-.6v-.5l-.2-.3-.2-.3-1.8-2.3-.4-.6-.3-.7-.1-.3-.1-.4V498l.1-.4.4-.6.5-.8,4.4-4.8.4-.3.4-.2.7-.1.6.1.7-.3.7-.6,5.8-5.8,2.7-2.1,5.8-1.3,1.1-.7,24.8.6.7-.2,1.2-.7,1.3-.9.2-.3.2-.3.1-.4V476l.1-.4.5-.3.7-.1h1.8l.5.1.4.1.3.2.3.3.2.3.1.3.6,2.5.1.4.4.6.6.8,3,3,1.8,1.2,1.4,1.1.2.4.2.5v1.1l-.1,1.2v.5l.1.6.1.8.3.5.3.3,3.9,1h2.1l.9-.3,1.2-.8,5.6-2.7.3-.1,8.4-1.9,1.1-.1,1.4,1,3.5,2.7.9.5.8.2h.4l4.4-1.8.5-.5,1.9-2.9.4-.4.5-.4.9-.5,1-.3h.8l4.5.7,5,1,1.2.2,1.2,2.2.2,1.1-.4,2-.1,1.2.1.6.2.4.4.3.4.2.4.2.8.1,6.4-.2.7-.2.3-.1.3-.3.2-.3.2-.4v-.7l-.1-.8v-.4l3.1.2,13.9,3.5Z" transform="translate(-487.7 -474.2)" fill="#d5d7e3" stroke="#fff" stroke-linecap="round" stroke-linejoin="round" stroke-width="2"/>
</svg>
