<svg xmlns="http://www.w3.org/2000/svg" width="141.4" height="117.9" viewBox="0 0 141.4 117.9">
  <path id="UZB355" d="M365,365.3l9.5,10.7,1.9,2.9.7,2.6-3,6.5L362,403.1l-.1-.1-.5-1.8-.3-.7-2.2-2.9-.8-1.6-1.2-4.7-.7-1.1-1.9-2.1-.6-1-.5-1.6-.6-3.5-1.9-6.5-.6-1.5.4-.6-.3-1.1-.1-5.4-.2-1.6-.5-1.3-4.3-7.2-1.1-1.2L331,346l-5-2.2-5.7-1.5-2.1-.3-1.3.7-.8,1.6-.6,2.7-1.4.8-1.1,2.5-1.7,1.8-2,1-2.2.1-2.3-1-6-4.3h-1.1l-3.4.6-.3-.7-.2-.7-.2-.2-1.1,1.9-.4.4-.4.4-2.8-2.9-4-1-11.7.7-7.1,2.4h-3.5l-2-.5-1.6-1.2-3.2-3.2-3.5-2.6-5.6-2.9-6.4-3.3-1.6-1.6-.4-1.8.7-6.3.5-1.3.7-1.1,1-.9,2.4-1.2.8-.9-.5-1.5L240,313l-1.7-3.4-.6-2.8,1.5-2.1,1.6-1.1,1.8-.2,2.2.7,2,1.3,1.2.5.9-.1.6-1-.1-1.1-.5-1.1-.7-.9-.8-.7-2.8-1.7-.9-.9-.6-1,.7-.7.6-1.8-.1-.8-.6-1.4-.2-.3-.1-.4.2-.3.4-.3.9-.2,1.6-.1,1.2-.5,3-2.1,1.1-1,.3-.2,1-.1,1.2.9.6.4,2.9.7,2.9.3.8.7.2,1.6v3.5l.5,1.3,1.5,2.4.7,2,1.6,2.9.8,1.1,1,.7,1.3.3h2.7l1,.6.6,1.3,1,3,1.5,2.7,1.9,2.1,13.7,12.5,1.5.3.8.3.6.5,2.1,2.3,1.8,1.7,1.3.5,3.4.6,1.1.7,3.1,3.4.7,1.1.7,2.3.9.4.4.3,1.3.5,1.5-.1,1-.8,2.3-4.5,1-1.1.9-.7,1-.5,1.2-.3h3.1l11.1,2.7,2.8,1.2,2.7,1.6,3.4,2.6,9.9,11,6.9,11.1.3.2.8.5.8.3,3.1-1Z" transform="translate(-236.7 -286.2)" fill="#d5d7e3" stroke="#fff" stroke-linecap="round" stroke-linejoin="round" stroke-width="2"/>
</svg>
