<svg xmlns="http://www.w3.org/2000/svg" width="140.4" height="103.3" viewBox="0 0 140.4 103.3">
  <path id="UZB358" d="M619.6,403.9l.5.4,7.3.3,2.4.7.9.2,1,.2,1.3-.1,1.5-.3.4-.1.3.3.3.4.4,1,.3.7.1.8-.1,1-.3,1.1-.5,1.2-.1.4-.1.5v.5l.1,3.6.1,1.3.8,4,.2.3.2.4.4.4,1.2.5.3.3.2.3v.6l-.2.4v.6l.2.6,1.6,1.9-.1,1.8-.2.7-.2.2-.3.3-1.1.3-.3.2-.1.4-.1.4.3,3.4.2.4.2.3.7.2h.5l.5-.1.3-.1,1.1-.5.3-.1h.8l.4.3.3.5.1,1-.2.5v.7l.1.4,2,2.2.8-.3h.3l.2-.1.7,1.1,4.6,1.3.7.1.9-.1.4-.1h.4l1,.6.4.2.5.1.6-.2,1.3.1,10.1,1.9,1,1.6,1.5,7.1-.2.6-.9.2h-.4l-1.6.4-1.2.4-1.9,1-.9.7-.4.4-.1.4-.2.5v1.8l.1.5.1.4.1.7v1.4l-.1.4-.3.4-.5.2-.5.1h-1.8l-.7.2-.4.7-.2.6-.1,5.2.6,1.3.8,1,2.4,2.1,4.4,3.9-.5.7-.7,2.9-.4,3-.1,2.8-.7,2.5-.4,2.5-.4.2-.6-.2-.6.2-.1.1-13.9-3.5-3.1-.2v.4l.1.8v.7l-.2.4-.2.3-.3.3-.3.1-.7.2-6.4.2-.8-.1-.4-.2-.4-.2-.4-.3-.2-.4-.1-.6.1-1.2.4-2-.2-1.1-1.2-2.2-1.2-.2-5-1-4.5-.7h-.8l-1,.3-.9.5-.5.4-.4.4-1.9,2.9-.5.5-4.4,1.8h-.4l-.8-.2-.9-.5-3.5-2.7-1.4-1-1.1.1-8.4,1.9-.3.1-5.6,2.7-1.2.8-.9.3h-2.1l-3.9-1-.3-.3-.3-.5-.1-.8-.1-.6v-.5l.1-1.2V487l-.2-.5-.2-.4-1.4-1.1-1.8-1.2-3-3-.6-.8-.4-.6-.1-.4-.6-2.5-.1-.3-.2-.3-.3-.3-.3-.2-.4-.1-.5-.1h-1.8l-.7.1-.5.3-.1.4v1.9l-.1.4-.2.3-.2.3-1.3.9-1.2.7-.7.2-24.8-.6-3.1-6.2-.7-2.3v-.4l1.7-3.9.2-.6.1-.7.1-1.1-.1-.6-1.7-6.4-.5-.7-.5-.5-1.1-1-1.8-2-.4-.9.1-.4.3-.3.3-.2.6-.1,2.8-.4,3.5-.9.5-.4.5-.4.2-1.3.1-.5.3-.5.4-.2.4.1,2,1.1,1.7.8,1.6.2h1.7l.7-.3.5-.3.4-.9,1-3.9.2-.5.9-2,.2-.6.1-.4-.1-.4-.3-.3-.3-.2-.4-.1H552l-.2-.3.1-.5,1.5-2.2.1-.4.2-.2.1-.4v-.4l.2-1.5-.1-1,.1-.3.2-.5.3-.8.3-.3.4-.2h.9l5.3,2.4,1.1.2.2.1.6.1,1.5,2.1.9,1,2.4.9,1.1.8,1.1.6,1.2-.4,2.5,1.6,2.5.5,12.5-2.6.7-.4,3.7-3.5.6-.6.3-.7V432l-.2-.4-.3-.5-.5-.2-.5-.1h-.5l-1.1.2h-.4l-.3-.1-.1-.5.1-.5,1.5-3.6.5-1.7.3-1,.5-1,1.5-2.1.3-.5v-.7l-.8-.8-.3-.4-.1-.5.1-.5.8-1.7.4-1.7L595,411l-.7-1.8v-.6l.3-.5,1.2-.5.4-.4.4-.9.1-.6-.3-.6-.4-.6-.5-1.4v-1.2l.2-1.2.7-2.1.5-1,.5-.9.7-.7.7-.6.8-.2.8.1.9.4,1.2.9,1,.6,1.1.4.9.2,1.2-.2,1.3-.6,4.2-2.9.6-.2.5.1.6.3,1.7,1.5,2,2.3.1.3.1.3v.7l-.4,1.2v.4l.1.3.1.3.2.3.7.9,1.1,1.1Z" transform="translate(-531.5 -392.9)" fill="#d5d7e3" stroke="#fff" stroke-linecap="round" stroke-linejoin="round" stroke-width="2"/>
</svg>
