<svg xmlns="http://www.w3.org/2000/svg" width="295.9" height="333.1" viewBox="0 0 295.9 333.1">
  <path id="UZB357" d="M627.6,353.4v.3l-7.1,2.9-.5,1.2-.7.9.9,10.8.1.4.2.3.3.7.5.6.4.2.8.5,5.2,1.4.3.3.2.3.2.3v1.3l-.2,1.4v1.3l.1.4.5,1.3,1.3,2.3-1.6,4.1-8.9,17.3-1.1-1.1-.7-.9-.2-.3-.1-.3-.1-.3v-.4l.4-1.2v-.7l-.1-.3-.1-.3-2-2.3-1.7-1.5-.6-.3-.5-.1-.6.2L608,397l-1.3.6-1.2.2-.9-.2-1.1-.4-1-.6-1.2-.9-.9-.4-.8-.1-.8.2-.7.6-.7.7-.5.9-.5,1-.7,2.1-.2,1.2v1.2l.5,1.4.4.6.3.6-.1.6-.4.9-.4.4-1.2.5-.3.5v.6l.7,1.8.2,2.7-.4,1.7-.8,1.7-.1.5.1.5.3.4.8.8v.7l-.3.5-1.5,2.1-.5,1-.3,1-.5,1.7-1.5,3.6-.1.5.1.5.3.1h.4l1.1-.2h.5l.5.1.5.2.3.5.2.4v.6l-.3.7-.6.6-3.7,3.5-.7.4-12.5,2.6-2.5-.5-2.5-1.6-1.2.4-1.1-.6-1.1-.8-2.4-.9-.9-1-1.5-2.1-.6-.1-.2-.1-1.1-.2-5.3-2.4h-.9l-.4.2-.3.3-.3.8-.2.5-.1.3.1,1-.2,1.5v.4l-.1.4-.2.2-.1.4-1.5,2.2-.1.5.2.3h.4l.4.1.3.2.3.3.1.4-.1.4-.2.6-.9,2-.2.5-1,3.9-.4.9-.5.3-.7.3h-1.7l-1.6-.2-1.7-.8-2-1.1-.4-.1-.4.2-.3.5-.1.5-.2,1.3-.5.4-.5.4-3.5.9-2.8.4-.6.1-.3.2-.3.3-.1.4.4.9,1.8,2,1.1,1,.5.5.5.7,1.7,6.4.1.6-.1,1.1-.1.7-.2.6-1.7,3.9v.4l.7,2.3,3.1,6.2-1.1.7-5.8,1.3-.1-2.1-.1-.5-.6-2-.3-.8-.3-.5-.9-1.2-1-1.1-.9-.5-1.4-.5-1.1-.6-.5-1.6-.2-1.6v-1.3l-.5-1.7-1-1.7-7-3.3-.5-.9-.9-.1-2.5,1.1h-1.1l-.8-.5-.2-.6-.3-.7-.1-.4-2.7-1.5-1.7-1.1-4.2-5.9-.9-1.9.8-1.9,1-2.1,1.9-2.4.2-.3.4-.5.5-1,3.5-1.6,1.1-.8,1-1,.8-1.1,2.8-5.6.8-.7.6-.1.4-.3.4-.3.4-.1,1.7-.2.1-.2-.3-.5-.9-1.2-1.7-1.7-.6-1.1-.1-.3v-.2l.3-.1.5-.5,1-2.8-1.5-1.5-.3-1.5v-.6l.1-.8.2-.7.5-.6,1-.6,2-.3h1.3l1.2.3,1.1,1,1.3.9,1.3.4,6.8.1.7-1.3,1.3-4.2,1-1,1.3-1.5,1.6-4.9.1-.9.6-1,.5-.4.5-.2.6.1,3,.6.8.1.1-.9-.3-.9-.1-1.6v-1.9l.1-2,.3-1.9,1.4-4.8-2.8.8-17.6-1.2-5.8-1.4-2-1.2-2-1.6-.8-2.3-.5-2-1.3-7.8-.5-1.8-.7-.1-1.8,2.7-1.9.8-2.5.5-7.7.3-2,.8-1.1.6-1.8,6.8-1.3,1.3-15.7-1.9-2.5-.9-.8-1.7-.1-5-.3-2.6-1.2-1.8-1.1-1-1.1-.3-1.2.4-1.1,1-1,1.5-3.5,7.2-4.1,6.2-7,2.4.1-1.5-2.1-2.1-1.3-2.3-17.5-10.8-9-5.1-7.6-3-5.1-1.1-1.4-.8-7.9-13.9L390.4,334l-1.5-2.5-1.8-4.3-4.9-.1-20.6,7.8-24.9-34.3-.5-1.1v-1l1.2-1.1,12.5-7.1.7-.7.3-.4-1.2-2.5-6.6-12.2-.2-.8v-.9l1.3-16.3,3.2-7.5,14.9-28.7,15.8-29.9.4-1v-.8l-.9-.5-15.7-4.3-2.9-2.7-6.3-10.7,4.8-.9,4.1-.7,7.4-1.4,6.6-1.2,3.3-.6,5.3-.9,5.3-.9,26.5-4.3,5.3-.9,8.9.9,8.8.8,8.9.8,8.8.8,8.1.7,8,.7,8.1.8,8,.7,3.2.3,2-.6,5.9-3.2,5.6-3.1,5.8-3.3,5.6-3.1,1.1-.4,1-.4,1.9.3.9.9,1,.8,6.3,8.2,6.2,8.2,2.9,3.1,2.9,3,6,3.8,6,3.7,2.3,2.1,4.9,10.2,3.2,6.5,4.3,9,3.8,7.7,1,.1,8.4-4.5,8.3-4.6-1.2,19.7-1.3,19.6-.3,4.2-.5,1.4-1.4.5-.3,1.1-.3,15.3-.2,15.2.2.9.5.4h13.3l6.4.1h7l.4-.1.5.1h.4l.3.2,1,9.9,1,9.8,1.8,9.6,1.9,9.6,2.5,11.5,2.5,11.3,1.3,1.6,1.3,1.6,1.4.4Z" transform="translate(-335.2 -150)" fill="#d5d7e3" stroke="#fff" stroke-linecap="round" stroke-linejoin="round" stroke-width="2"/>
</svg>
