<svg xmlns="http://www.w3.org/2000/svg" width="153.3" height="165" viewBox="0 0 153.3 165">
  <path id="UZB372" d="M843.4,333.9l-.7,1.9-.5.9-2.9,3.8-.1.5-.1.5.1.9.1,1.2.2.4.2.3,1.6.2.2.7-.3,1-.2.5-1.1,2.4-.1.4v.6l.2.5.3.6,1.2,1.6,1.2,2,.2,1.7.2,5.7-.5,1.8-.7-.8-2.6-1.1-2.2.6-1.6,8.1-3.2,3.8-4.2,2.6-6,2.4-5.5,4.2-10.7,3.4-1.3.6-1.2,1-2.4,3.1-1.4,1.2-1.5.5-1.8-.6-.8-.7-.6-.8-1-1.8-.7-.8-1.4-1-.7-.6-2.3-3.5-1.3-1.3-1.9-.2-.9-.5-.7-.8-.8-.6-1-.1-1.9.6-.9.5-.9.7-1.4,1.9-.9,2-.4,2.3-.1,2.8.4,4.1-.2,1-.9.5-3.5.3-2.1,1.5v1.6l2.3,3.9h.1l1.2,4.3.6,1.4,1.5,2.7.6,1.5.4,1.7-.5,3.7-1.8.3-2.3-.8-1.5.2.3,2.2,4.2,3.8v1.8l-2.2,1-2.9-.1-5.2-1.5-2-1,.3-1.1.8-3-.1-1.1-.4-.6-.8-2.1,1.2-7,.2-.6.3-.7.3-.6.9-1.1.2-.6-.1-.7-.2-.7-.1-.6-.4-.5-.6-.6-.1-.6,1.1-.6-.5-.4-.6-.2-.6-.1-.7.1.7-2.7.5-1.1,1.5-.7v-.5l-.4-.5-.5-.3-.6.3-.6.7-.6.4-.4-.3v-.6l.9-.9.3-.6-.3-.7-1.1-.9-.7-1.9-1-.1-2.5.4.9-1.5.3-.8-.6-.3-.9.3-.8.5-.8.3-.9-.6.8-1-.2-1-.6-.9-.8-.8-.4-.1-.4.1-.4-.1-.4-.3-.1-.4.1-.9V384l-.6-1.3-.3-.4-.7-.5-1.5-.8-.4-.3-.5-.5-.6-1.3-.5-.7-.9-.7L745,377l-1.3-.3-.9.4-.2-1.3-.2-.5h-.2l-.5.4-.3-.2-.2-.6-.1-1.8-.2-.8-.4-.7-3-2.7,2.3-1,1.2-1.4,1.1-3.1,1.1-3.1.7-.9.9-.9,2-.9,1.9-.9,1.5-2.5.4-.5.3-.5,1.2-.4,2.5-.3,1.1-.5,1-.5,1-.7,1-.7,1-1,.5-.9.4-3.7.5-3.6-.1-1.3-.1-.9-.2-.3-.3-.2-.5-.7-.2-.6.3-.6.5-.4,2.7-1.3,1.1-.3,1,.4.6-1.6,1.5-1.4,1.5-1,1.6-1,1-.3,1.7.7.8-.1,2.3-1.5.8-.2,1.8.3,1.7.3.7-.4-.1-.8-1-1.8-.2-.8.4-1,.4-1,1.5-1.2,3.3-1,3-2.4,2.9-2.3.9-1,.8-.9,1-.8,3.9-1.1,3.9-1.1,3.3-.1,3.2-.2,2.4-1,1.8-2.1.8-1.2.9-.7,1.6-.6,1.6-.6,4.9-3.6.7-.9.7-.8,2-3.5,2-3.4.8-.9,1-.5,1.1-.4.9-.5.8-.8.2-.7.2-.7,1.4-3.2,1.3-1.1,1.2-1.1,5.7-2.4.8.1,1.1.8.9,1,.5,1.1.4,1.4.9.9,1.2.5,1.4.2.9-.4.9-.4,1.2-2.3.6-1.5.5-1.4,1.3-2.6.9-.9.8-1,.6-1.1.5-1.4.8-1.2h1.4l2.7.7,2.2-.3,1.1-.5,1.1-.6,3.9-3.2,1.3-1.2,2.5-2,1.9-.2,1.8.8,8.2,5.8,2,.7-.8,3-2.2,1.5L881,278l-8.2,6.1-2.4.6-2.9-.1-2.3.6-1.1,2.9-.1,4.5-.7,1.3-2,.8-5.8.6-1.8,1.1-5.7,4.9-2.5,3-1.7,3.7-1.4,2.1-1.8,1.1-1.9,1-3.4,2.7-9.4,5.6-1.3,2,1.1,2.5,2.1,1.1,8.2.9.1.1,2.1,1.3,1,.9.9,1.1,1.4,2.7.9.8h1ZM779,342.2l-.6-.7.5-.7-.6-.9-.8-.5.9-1.5-.3-1.3-2.1-1.4-1.8-.2-1.4-1-1.9.1-3.1,3.1-.5,2.4-1.5,3.8.2.1,1-.5.1.9.4.9,1.4,1.6,1-.9v.3l-.3.7.7,1.3,1.7.5,1.9-2.3,2.9-2.7,2.2-1.1Z" transform="translate(-736.5 -263.8)" fill="#d5d7e3" stroke="#fff" stroke-linecap="round" stroke-linejoin="round" stroke-width="2"/>
</svg>
