<svg xmlns="http://www.w3.org/2000/svg" xmlns:xlink="http://www.w3.org/1999/xlink" width="75" height="75" viewBox="0 0 75 75">
  <defs>
    <filter id="Эллипс_51" x="0" y="0" width="75" height="75" filterUnits="userSpaceOnUse">
      <feOffset dx="2" dy="5" input="SourceAlpha"/>
      <feGaussianBlur stdDeviation="2" result="blur"/>
      <feFlood flood-opacity="0.161"/>
      <feComposite operator="in" in2="blur"/>
      <feComposite in="SourceGraphic"/>
    </filter>
  </defs>
  <g id="Сгруппировать_212" data-name="Сгруппировать 212" transform="translate(-929 -300.18)">
    <g id="Сгруппировать_211" data-name="Сгруппировать 211" transform="translate(953.158 316.816)">
      <path id="Контур_66" data-name="Контур 66" d="M25.974,118.7l-1.5-9.272H5.836l-1.5,9.262,0,.01a9.189,9.189,0,0,0-.308,2.357h0a3.59,3.59,0,0,0,3.645,3.532H22.637a3.59,3.59,0,0,0,3.645-3.532h0A9.18,9.18,0,0,0,25.974,118.7Zm0,0" transform="translate(-3.723 -101.085)" fill="#4671c6"/>
      <path id="Контур_67" data-name="Контур 67" d="M18.942,121.2H3.977a3.9,3.9,0,0,1-3.95-3.837,9.483,9.483,0,0,1,.317-2.431l1.5-9.248a.3.3,0,0,1,.3-.256H20.779a.305.305,0,0,1,.3.256l1.5,9.258a9.5,9.5,0,0,1,.314,2.42A3.9,3.9,0,0,1,18.942,121.2ZM2.4,106.036.944,115.042c0,.01,0,.02-.006.03a8.9,8.9,0,0,0-.3,2.288,3.289,3.289,0,0,0,3.34,3.227H18.942a3.289,3.289,0,0,0,3.34-3.227,8.887,8.887,0,0,0-.3-2.279.252.252,0,0,1-.006-.03l-1.459-9.016Zm0,0" transform="translate(-0.027 -97.39)" fill="#3762cc"/>
      <path id="Контур_68" data-name="Контур 68" d="M27.844,50.319l-.052,0v-.775a8.206,8.206,0,0,0-16.413,0v.775l-.052,0a2.5,2.5,0,0,0,0,5.008,2.579,2.579,0,0,0,.269-.015,8.206,8.206,0,0,0,15.98,0,2.5,2.5,0,1,0,.268-4.993Zm0,0" transform="translate(-8.154 -38.189)" fill="#f9cfcf"/>
      <path id="Контур_69" data-name="Контур 69" d="M142.8,199.318l-.016-.2-.024-1.408a.649.649,0,0,0-.741-.632.666.666,0,0,0-.556.679l.026,1.55a.215.215,0,0,1-.428.029l-.37-3.146a.649.649,0,0,0-.8-.554.666.666,0,0,0-.486.731l.4,3.37a.217.217,0,0,1-.425.082l-1.02-3.807a.65.65,0,0,0-.872-.433.666.666,0,0,0-.375.793l1.015,3.787a.213.213,0,0,1-.4.139l-1.243-2.887a.649.649,0,0,0-.938-.3.662.662,0,0,0-.246.827l1.242,2.885.285,1.064a.121.121,0,0,1-.172.138l-1.007-.525a1.02,1.02,0,0,0-1.447.227.3.3,0,0,0,.071.411l.707.527L136.492,204A8.211,8.211,0,0,0,142.8,199.318Zm0,0" transform="translate(-123.92 -180.623)" fill="#f9a7a7"/>
      <path id="Контур_70" data-name="Контур 70" d="M49.756,324.24c0-.031,0-.061-.006-.092,0-.059-.007-.118-.013-.177,0-.037-.007-.073-.012-.109-.006-.052-.012-.1-.019-.155s-.011-.078-.018-.117-.016-.1-.025-.142-.015-.082-.024-.123-.019-.086-.029-.129-.02-.087-.031-.13-.019-.07-.029-.1a5.737,5.737,0,0,0-.185-.555l-.018-.046c-.024-.06-.049-.119-.075-.177l-.022-.05c-.027-.06-.055-.119-.084-.177l-.019-.039q-.047-.093-.1-.185l-.009-.016a5.794,5.794,0,0,0-4.835-2.992l-.014.018h.01l-.68,1.793a1.113,1.113,0,0,1-1.04.718H38.4a1.113,1.113,0,0,1-1.04-.718l-.591-1.557a.86.86,0,0,1-.09-.236h0a5.788,5.788,0,0,0-4.049,2.2h0l-.011.014c-.031.04-.062.081-.092.122l-.056.077c-.029.04-.057.081-.085.122l-.055.083c-.027.041-.053.082-.078.123l-.054.089c-.024.041-.049.082-.071.124s-.035.063-.051.1-.044.083-.066.125-.033.068-.049.1-.04.082-.059.124-.035.082-.052.123c-.028.065-.054.132-.079.2-.017.046-.035.091-.051.137s-.024.073-.036.11-.029.089-.043.134-.021.075-.032.112-.025.091-.037.136-.018.076-.027.113-.021.094-.031.141-.015.075-.022.113-.017.1-.025.147-.011.073-.017.11-.013.1-.019.157c0,.035-.008.069-.011.1-.005.058-.009.117-.013.176,0,.029,0,.059-.006.088,0,.089-.006.178-.006.268v1.159h18.36v-1.159C49.763,324.42,49.76,324.33,49.756,324.24Zm0,0" transform="translate(-29.011 -294.429)" fill="#6bdddd"/>
      <path id="Контур_71" data-name="Контур 71" d="M101.373,299.94h5.615l.953-2.511h-.006a.834.834,0,0,0,.027-.2v-1.577a8.207,8.207,0,0,1-7.564,0v1.582a.84.84,0,0,0,.026.195h-.005Zm0,0" transform="translate(-92.748 -273.117)" fill="#f9cfcf"/>
      <g id="Сгруппировать_1" data-name="Сгруппировать 1" transform="translate(0.366 2.846)">
        <path id="Контур_72" data-name="Контур 72" d="M15.887,58.253a8.47,8.47,0,0,1-8.224-6.321H7.629a2.809,2.809,0,0,1-.253-5.606v-.479a8.511,8.511,0,0,1,17.023,0v.479a2.809,2.809,0,0,1-.253,5.606h-.034A8.47,8.47,0,0,1,15.887,58.253ZM7.9,51.308a.3.3,0,0,1,.3.236,7.9,7.9,0,0,0,15.386,0,.306.306,0,0,1,.329-.234,2.2,2.2,0,1,0,.238-4.385l-.046,0a.3.3,0,0,1-.221-.086.3.3,0,0,1-.092-.218v-.776a7.9,7.9,0,0,0-15.8,0v.775a.305.305,0,0,1-.092.219.3.3,0,0,1-.221.086l-.037,0h0a2.2,2.2,0,1,0-.006,4.4,2.13,2.13,0,0,0,.236-.013Zm0,0" transform="translate(-4.82 -37.336)" fill="#3762cc"/>
        <path id="Контур_73" data-name="Контур 73" d="M46.064,300.97H27.7a.3.3,0,0,1-.3-.3v-1.159q0-.142.007-.282c0-.021,0-.041,0-.062l0-.031c0-.062.008-.124.013-.186,0-.027.006-.054.009-.082l0-.028c.006-.055.013-.11.02-.165.005-.039.011-.078.018-.117s.016-.1.026-.155.015-.079.023-.118.021-.1.032-.149.018-.079.028-.119.026-.1.039-.144l.006-.023.027-.095c.013-.044.027-.087.042-.13l.013-.041c.009-.029.018-.057.028-.085s.03-.081.045-.122l.009-.022c.027-.07.054-.14.083-.209l.013-.03c.014-.034.028-.067.043-.1s.032-.068.048-.1l.024-.05.041-.085c.021-.042.043-.084.066-.125l.057-.106c.024-.044.05-.087.075-.13l.057-.095c.026-.043.054-.086.082-.129l.059-.088c.029-.043.059-.086.089-.129l.059-.08c.032-.044.065-.087.1-.129l.012-.015a6.125,6.125,0,0,1,3.963-2.283v-1.507a.3.3,0,0,1,.445-.27,7.9,7.9,0,0,0,7.282,0,.3.3,0,0,1,.446.27v1.475a6.141,6.141,0,0,1,4.779,3.129l.01.017c.035.064.069.129.1.194l.021.041c.031.062.06.124.089.188l.023.052c.028.063.054.125.08.188l.018.047a6.079,6.079,0,0,1,.194.584l.009.031c.007.026.015.053.022.079s.019.078.028.116l0,.021c.011.045.021.09.031.136s.017.086.025.129.018.1.026.15.013.082.018.124.014.108.02.163.009.082.013.115c.006.061.01.123.014.186l0,.033c0,.021,0,.042,0,.063,0,.095.007.19.007.286v1.159A.305.305,0,0,1,46.064,300.97Zm-18.056-.61H45.759v-.854c0-.087,0-.173-.007-.258l-.006-.087c0-.055-.007-.111-.012-.167,0-.03-.006-.059-.01-.088v-.015c-.006-.049-.012-.1-.018-.147s-.011-.074-.017-.111-.015-.09-.023-.135-.015-.078-.023-.117-.018-.081-.027-.122l-.005-.022c-.008-.034-.016-.068-.024-.1s-.012-.044-.018-.066l-.009-.033a5.433,5.433,0,0,0-.175-.526l-.016-.042c-.024-.058-.048-.114-.072-.169l-.02-.046c-.026-.057-.052-.113-.08-.169l-.019-.038c-.029-.058-.06-.117-.091-.174l.258-.163-.267.147a5.524,5.524,0,0,0-4.538-2.833.293.293,0,0,1-.167-.027.3.3,0,0,1-.168-.34.51.51,0,0,0,.017-.121v-1.091a8.514,8.514,0,0,1-6.954,0v1.1a.53.53,0,0,0,.018.124.305.305,0,0,1-.286.376,5.506,5.506,0,0,0-3.824,2.085l-.009.011,0,0c-.029.036-.057.075-.086.115l-.053.072c-.027.038-.054.077-.08.116l-.053.08c-.024.038-.049.076-.073.116l-.051.085c-.023.039-.046.078-.068.118s-.03.055-.044.082l-.008.015c-.02.037-.04.074-.058.111l-.035.073-.026.054-.041.087-.036.085-.013.032c-.026.062-.051.125-.075.188l-.009.023c-.013.035-.027.071-.039.106s-.016.047-.024.071l-.011.033c-.016.05-.029.088-.041.127s-.016.055-.023.082l-.007.024c-.012.043-.024.086-.035.129s-.017.071-.025.107-.02.089-.029.134-.014.071-.021.107-.016.092-.024.139-.011.07-.016.1-.013.1-.018.149l-.011.1c-.005.055-.009.111-.012.167l-.005.084c0,.084-.006.168-.006.254v.854Zm0,0" transform="translate(-25.678 -272.269)" fill="#3762cc"/>
        <path id="Контур_74" data-name="Контур 74" d="M186.1,163.046a2.823,2.823,0,0,1-.958-.175c-1.1-.4-1.742-1.334-1.455-2.122a.3.3,0,1,1,.573.208c-.164.452.335,1.066,1.091,1.341a2.023,2.023,0,0,0,1.131.095.771.771,0,0,0,.566-.421.3.3,0,0,1,.573.208,1.328,1.328,0,0,1-1,.805A2.216,2.216,0,0,1,186.1,163.046Zm0,0" transform="translate(-169.992 -151.156)" fill="#3762cc"/>
        <path id="Контур_75" data-name="Контур 75" d="M126.436,234.247a.3.3,0,0,1-.3-.3c0-.481-.679-.887-1.483-.887s-1.483.406-1.483.887a.3.3,0,0,1-.61,0c0-.84.919-1.5,2.093-1.5s2.093.657,2.093,1.5A.305.305,0,0,1,126.436,234.247Zm0,0" transform="translate(-113.581 -217.574)" fill="#3762cc"/>
      </g>
      <path id="Контур_76" data-name="Контур 76" d="M65.615,148.852a2.317,2.317,0,1,1-2.317-2.317A2.317,2.317,0,0,1,65.615,148.852Zm0,0" transform="translate(-56.334 -135.366)" fill="#a4c9ff"/>
      <path id="Контур_77" data-name="Контур 77" d="M58.508,193.39a.875.875,0,0,0-.138.462.84.84,0,0,0,.768.861.829.829,0,0,0,.855-.849.874.874,0,0,0-.138-.475h0l-.605-.955a.079.079,0,0,0-.135,0l-.605.955h0Zm0,0" transform="translate(-53.923 -177.732)" fill="#e0ebfc"/>
      <path id="Контур_78" data-name="Контур 78" d="M24.7,14.7H15.413a.225.225,0,0,1-.225-.225V11.9a7.9,7.9,0,0,1,7.9-7.9H24.7a5.136,5.136,0,0,1,5.136,5.135v.431A5.136,5.136,0,0,1,24.7,14.7Zm0,0" transform="translate(-14.032 -3.695)" fill="#4671c6"/>
      <path id="Контур_79" data-name="Контур 79" d="M195.636,33.835H193.9a5.216,5.216,0,0,1-5.216-5.216V23.563h.89a6.5,6.5,0,0,1,6.5,6.5V33.4A.433.433,0,0,1,195.636,33.835Zm0,0" transform="translate(-174.3 -21.767)" fill="#4671c6"/>
      <path id="Контур_80" data-name="Контур 80" d="M31.673,12.374h-1.74a5.517,5.517,0,0,1-4.858-2.9A5.465,5.465,0,0,1,21,11.312H11.717a.531.531,0,0,1-.53-.53V8.2A8.212,8.212,0,0,1,19.39,0H21a5.388,5.388,0,0,1,3.74,1.491h.864A6.813,6.813,0,0,1,32.411,8.3v3.339A.739.739,0,0,1,31.673,12.374ZM25.14,8.608l.035,0a.305.305,0,0,1,.245.182,4.908,4.908,0,0,0,4.513,2.972h1.741a.129.129,0,0,0,.129-.129V8.3a6.2,6.2,0,0,0-6.2-6.2h-.664a.3.3,0,0,1-.446.005A4.788,4.788,0,0,0,21,.61H19.39A7.6,7.6,0,0,0,11.8,8.2v2.5H21a4.853,4.853,0,0,0,3.892-1.97A.305.305,0,0,1,25.14,8.608Zm0,0" transform="translate(-10.337)" fill="#3762cc"/>
      <path id="Контур_82" data-name="Контур 82" d="M66.55,163.049a2.236,2.236,0,0,1-.526-.06,1.328,1.328,0,0,1-.995-.805.3.3,0,1,1,.573-.208.772.772,0,0,0,.566.421A2.02,2.02,0,0,0,67.3,162.3c.756-.275,1.255-.889,1.091-1.341a.3.3,0,0,1,.573-.208c.287.789-.352,1.721-1.455,2.123A2.821,2.821,0,0,1,66.55,163.049Zm0,0" transform="translate(-60.057 -148.314)" fill="#3762cc"/>
    </g>
    <g transform="matrix(1, 0, 0, 1, 929, 300.18)" filter="url(#Эллипс_51)">
      <g id="Эллипс_51-2" data-name="Эллипс 51" transform="translate(4 1)" fill="none" stroke="#322a7d" stroke-width="1" stroke-dasharray="8">
        <circle cx="31.5" cy="31.5" r="31.5" stroke="none"/>
        <circle cx="31.5" cy="31.5" r="31" fill="none"/>
      </g>
    </g>
  </g>
</svg>
